<?xml version="1.0" encoding="UTF-8"?>
<svg xmlns="http://www.w3.org/2000/svg" xmlns:xlink="http://www.w3.org/1999/xlink" width="218px" height="40px" viewBox="0 0 216 40" version="1.1">
<g id="surface1">
<path style=" stroke:none;fill-rule:nonzero;fill:rgb(0%,0%,0%);fill-opacity:1;" d="M 59.441406 23.492188 C 59.277344 23.050781 59.191406 22.445312 59.191406 21.671875 C 59.191406 20.894531 59.457031 18.597656 59.984375 14.777344 C 60.511719 10.96875 60.773438 7.90625 60.773438 5.597656 C 60.773438 5.054688 60.734375 4.3125 60.65625 3.371094 C 62.019531 3.445312 62.875 3.769531 63.222656 4.339844 C 63.402344 4.671875 63.519531 4.988281 63.570312 5.285156 C 63.621094 5.582031 63.648438 6.054688 63.648438 6.699219 C 63.648438 7.332031 63.359375 9.742188 62.78125 13.925781 C 62.1875 18.105469 61.886719 21.089844 61.875 22.871094 C 61.964844 22.84375 62.125 22.832031 62.355469 22.832031 C 66.25 22.832031 69.152344 22.5625 71.054688 22.019531 C 70.925781 23.066406 70.570312 23.878906 69.992188 24.457031 C 69.402344 25.039062 68.667969 25.332031 67.792969 25.332031 C 67.535156 25.332031 66.757812 25.273438 65.460938 25.15625 C 64.148438 25.039062 62.882812 24.980469 61.660156 24.980469 C 60.441406 24.980469 59.210938 25.097656 57.976562 25.332031 C 58.222656 24.53125 58.710938 23.917969 59.441406 23.492188 Z M 77.207031 14.503906 C 76.691406 15.410156 76.292969 16.339844 76.011719 17.292969 C 75.726562 18.234375 75.585938 19.144531 75.585938 20.023438 C 75.585938 20.890625 75.777344 21.625 76.164062 22.230469 C 76.550781 22.839844 77.101562 23.140625 77.824219 23.140625 C 78.839844 23.140625 79.785156 22.585938 80.65625 21.476562 C 81.546875 20.351562 82.226562 19.003906 82.703125 17.429688 C 83.179688 15.839844 83.417969 14.375 83.417969 13.03125 C 83.417969 11.691406 83.363281 10.585938 83.261719 9.722656 C 83.6875 9.683594 83.957031 9.664062 84.070312 9.664062 C 85.601562 9.664062 86.367188 10.449219 86.367188 12.027344 C 86.367188 12.363281 86.148438 13.757812 85.710938 16.210938 C 85.285156 18.664062 85.074219 20.625 85.074219 22.097656 C 85.074219 23.566406 85.351562 24.871094 85.902344 26.007812 C 84.773438 25.777344 83.949219 25.273438 83.433594 24.496094 C 82.921875 23.734375 82.664062 22.632812 82.664062 21.1875 C 82.664062 20.929688 82.703125 20.4375 82.78125 19.714844 C 82.289062 21.429688 81.4375 22.8125 80.214844 23.859375 C 78.980469 24.917969 77.777344 25.445312 76.609375 25.445312 C 75.425781 25.445312 74.472656 24.996094 73.753906 24.089844 C 73.035156 23.199219 72.671875 21.96875 72.671875 20.390625 C 72.671875 18.804688 72.96875 17.253906 73.5625 15.746094 C 74.140625 14.234375 75.019531 12.929688 76.203125 11.832031 C 77.371094 10.722656 78.691406 10.167969 80.15625 10.167969 C 80.785156 10.167969 81.480469 10.296875 82.238281 10.554688 C 81.171875 10.824219 80.195312 11.324219 79.308594 12.046875 C 78.433594 12.769531 77.734375 13.589844 77.207031 14.503906 Z M 104.378906 6.273438 L 104.398438 6.605469 C 104.398438 7.289062 104.140625 9.535156 103.628906 13.34375 C 103.113281 17.140625 102.855469 20.316406 102.855469 22.871094 C 102.855469 24.007812 102.914062 24.890625 103.03125 25.523438 C 102.59375 25.5625 102.355469 25.582031 102.316406 25.582031 C 101.507812 25.582031 100.902344 25.394531 100.503906 25.019531 C 100.117188 24.644531 99.925781 24.039062 99.925781 23.199219 C 99.925781 22.359375 100.226562 19.792969 100.832031 15.492188 C 101.421875 11.207031 101.71875 8.148438 101.71875 6.3125 C 101.71875 4.480469 101.597656 3.277344 101.351562 2.710938 C 101.929688 2.789062 102.464844 3.015625 102.953125 3.390625 C 103.453125 3.75 103.828125 4.242188 104.070312 4.859375 C 105.449219 4.125 106.976562 3.757812 108.660156 3.757812 C 110.332031 3.757812 111.652344 4.273438 112.617188 5.304688 C 113.578125 6.351562 114.0625 7.628906 114.0625 9.140625 C 114.0625 11.078125 113.363281 12.820312 111.960938 14.371094 C 110.558594 15.90625 108.667969 16.675781 106.289062 16.675781 C 105.75 16.675781 105.253906 16.640625 104.804688 16.578125 L 104.726562 15.707031 C 105.9375 15.707031 106.992188 15.523438 107.890625 15.164062 C 108.789062 14.800781 109.472656 14.324219 109.933594 13.730469 C 110.847656 12.570312 111.304688 11.210938 111.304688 9.664062 C 111.304688 8.539062 110.949219 7.605469 110.242188 6.855469 C 109.535156 6.105469 108.507812 5.730469 107.15625 5.730469 C 106.347656 5.730469 105.421875 5.914062 104.378906 6.273438 Z M 120.039062 14.503906 C 119.515625 15.410156 119.109375 16.339844 118.824219 17.292969 C 118.554688 18.234375 118.421875 19.144531 118.421875 20.023438 C 118.421875 20.890625 118.613281 21.625 119 22.230469 C 119.386719 22.839844 119.9375 23.140625 120.65625 23.140625 C 121.660156 23.140625 122.605469 22.585938 123.492188 21.476562 C 124.367188 20.351562 125.042969 19.003906 125.519531 17.429688 C 126.007812 15.839844 126.25 14.375 126.25 13.03125 C 126.25 11.691406 126.191406 10.585938 126.078125 9.722656 C 126.515625 9.683594 126.785156 9.664062 126.886719 9.664062 C 128.417969 9.664062 129.183594 10.449219 129.183594 12.027344 C 129.183594 12.363281 128.96875 13.757812 128.546875 16.210938 C 128.109375 18.664062 127.890625 20.625 127.890625 22.097656 C 127.890625 23.566406 128.167969 24.871094 128.71875 26.007812 C 127.589844 25.777344 126.765625 25.273438 126.25 24.496094 C 125.738281 23.734375 125.480469 22.632812 125.480469 21.1875 C 125.480469 20.929688 125.519531 20.4375 125.59375 19.714844 C 125.105469 21.429688 124.25 22.8125 123.03125 23.859375 C 121.808594 24.917969 120.605469 25.445312 119.421875 25.445312 C 118.242188 25.445312 117.289062 24.996094 116.570312 24.089844 C 115.847656 23.199219 115.488281 21.96875 115.488281 20.390625 C 115.488281 18.804688 115.785156 17.253906 116.375 15.746094 C 116.957031 14.234375 117.835938 12.929688 119.019531 11.832031 C 120.203125 10.722656 121.519531 10.167969 122.972656 10.167969 C 123.601562 10.167969 124.296875 10.296875 125.054688 10.554688 C 123.988281 10.824219 123.015625 11.324219 122.144531 12.046875 C 121.257812 12.769531 120.554688 13.589844 120.039062 14.503906 Z M 145.867188 13.324219 C 145.867188 14.148438 145.691406 15.617188 145.34375 17.71875 C 144.996094 19.824219 144.824219 21.359375 144.824219 22.328125 C 144.824219 23.285156 144.941406 23.976562 145.171875 24.402344 C 145.402344 24.828125 145.800781 25.1875 146.367188 25.484375 C 146.121094 25.511719 145.789062 25.523438 145.363281 25.523438 C 144.140625 25.523438 143.273438 25.292969 142.761719 24.828125 C 142.246094 24.363281 141.988281 23.535156 141.988281 22.347656 C 141.988281 21.675781 142.167969 20.328125 142.527344 18.300781 C 142.890625 16.261719 143.070312 14.761719 143.070312 13.808594 C 143.070312 12.621094 142.707031 12.027344 141.988281 12.027344 C 140.832031 12.027344 139.636719 13.046875 138.402344 15.085938 C 137.167969 17.125 136.550781 19.585938 136.550781 22.464844 C 136.550781 23.601562 136.609375 24.484375 136.722656 25.117188 C 136.246094 25.15625 135.964844 25.175781 135.875 25.175781 C 134.292969 25.175781 133.503906 24.394531 133.503906 22.832031 C 133.503906 22.472656 133.695312 21.082031 134.082031 18.667969 C 134.453125 16.242188 134.640625 14.3125 134.640625 12.878906 C 134.640625 11.433594 134.488281 10.109375 134.179688 8.910156 C 135.246094 9.320312 135.992188 9.910156 136.414062 10.671875 C 136.839844 11.445312 137.050781 12.324219 137.050781 13.304688 C 137.050781 14.285156 136.941406 15.429688 136.722656 16.730469 C 137.316406 14.691406 138.246094 12.976562 139.519531 11.582031 C 140.78125 10.171875 141.964844 9.46875 143.070312 9.46875 C 144.933594 9.46875 145.867188 10.753906 145.867188 13.324219 Z M 158.804688 10.265625 C 158.804688 11.011719 158.664062 11.535156 158.382812 11.832031 C 158.085938 12.117188 157.664062 12.257812 157.109375 12.257812 L 155.160156 12.257812 C 155.085938 12.734375 154.898438 13.859375 154.601562 15.628906 C 153.984375 18.984375 153.675781 21.523438 153.675781 23.238281 C 153.675781 24.957031 153.804688 26.097656 154.0625 26.667969 C 153.035156 26.28125 152.300781 25.703125 151.863281 24.941406 C 151.4375 24.167969 151.226562 23.234375 151.226562 22.136719 C 151.226562 21.023438 151.292969 19.980469 151.421875 18.996094 C 151.5625 18.015625 151.753906 16.867188 152 15.550781 C 152.253906 14.222656 152.4375 13.164062 152.539062 12.375 C 151.511719 12.515625 150.5 12.808594 149.511719 13.246094 C 149.484375 12.949219 149.472656 12.683594 149.472656 12.453125 C 149.472656 11.585938 149.753906 11.007812 150.320312 10.710938 C 150.898438 10.414062 151.726562 10.265625 152.808594 10.265625 C 152.9375 8.921875 153 7.921875 153 7.261719 C 153 6.605469 152.996094 6.074219 152.980469 5.675781 L 152.980469 4.785156 C 153.804688 4.914062 154.441406 5.28125 154.890625 5.886719 C 155.339844 6.480469 155.566406 7.308594 155.566406 8.367188 C 155.566406 8.910156 155.523438 9.566406 155.429688 10.339844 C 157 10.339844 158.105469 10.078125 158.75 9.546875 C 158.789062 9.804688 158.804688 10.042969 158.804688 10.265625 Z M 163.878906 16.730469 C 164.46875 14.691406 165.382812 12.976562 166.617188 11.582031 C 167.851562 10.171875 169.007812 9.46875 170.089844 9.46875 C 171.167969 9.46875 171.933594 9.800781 172.382812 10.457031 C 172.835938 11.117188 173.058594 12.011719 173.058594 13.148438 C 173.058594 14.273438 172.886719 15.855469 172.539062 17.894531 C 172.191406 19.945312 172.019531 21.4375 172.019531 22.367188 C 172.019531 23.296875 172.132812 23.976562 172.363281 24.402344 C 172.597656 24.828125 172.988281 25.1875 173.542969 25.484375 C 173.308594 25.511719 172.980469 25.523438 172.558594 25.523438 C 171.402344 25.523438 170.546875 25.285156 169.992188 24.808594 C 169.453125 24.328125 169.183594 23.511719 169.183594 22.347656 C 169.183594 21.675781 169.363281 20.328125 169.722656 18.300781 C 170.082031 16.261719 170.261719 14.761719 170.261719 13.808594 C 170.261719 12.621094 169.84375 12.027344 169.007812 12.027344 C 168.519531 12.027344 167.980469 12.285156 167.390625 12.800781 C 166.796875 13.304688 166.226562 13.996094 165.671875 14.871094 C 165.132812 15.75 164.675781 16.867188 164.304688 18.222656 C 163.929688 19.566406 163.742188 20.890625 163.742188 22.191406 C 163.742188 23.511719 163.800781 24.484375 163.917969 25.117188 C 163.480469 25.15625 163.234375 25.175781 163.183594 25.175781 C 162.335938 25.175781 161.710938 24.996094 161.3125 24.632812 C 160.902344 24.273438 160.695312 23.703125 160.695312 22.929688 C 160.695312 22.167969 160.855469 20.6875 161.179688 18.496094 C 162.128906 11.769531 162.605469 6.660156 162.605469 3.175781 C 162.605469 1.601562 162.503906 0.542969 162.296875 0 C 163.339844 0.386719 164.070312 0.949219 164.496094 1.683594 C 164.921875 2.433594 165.132812 3.453125 165.132812 4.746094 C 165.132812 5.648438 164.953125 7.546875 164.59375 10.4375 C 164.246094 13.332031 164.007812 15.429688 163.878906 16.730469 Z M 184.304688 10.882812 C 183.222656 10.882812 182.308594 11.503906 181.566406 12.742188 C 180.804688 13.996094 180.304688 15.460938 180.058594 17.140625 L 180.8125 17.140625 C 181.765625 17.140625 182.59375 17.003906 183.300781 16.730469 C 183.996094 16.460938 184.535156 16.113281 184.921875 15.6875 C 185.640625 14.847656 186 13.90625 186 12.859375 C 186 12.265625 185.859375 11.789062 185.574219 11.425781 C 185.292969 11.0625 184.867188 10.882812 184.304688 10.882812 Z M 188.101562 21.863281 C 187.28125 23.21875 186.375 24.167969 185.382812 24.710938 C 184.394531 25.253906 183.242188 25.523438 181.929688 25.523438 C 180.632812 25.523438 179.496094 24.941406 178.515625 23.78125 C 177.539062 22.632812 177.050781 21.003906 177.050781 18.902344 C 177.050781 16.511719 177.695312 14.382812 178.980469 12.511719 C 179.609375 11.605469 180.433594 10.871094 181.449219 10.300781 C 182.464844 9.746094 183.582031 9.46875 184.804688 9.46875 C 187.503906 9.46875 188.855469 10.78125 188.855469 13.402344 C 188.855469 14.976562 188.25 16.210938 187.042969 17.101562 C 185.820312 17.992188 184.414062 18.4375 182.816406 18.4375 C 181.75 18.4375 180.792969 18.339844 179.945312 18.144531 C 179.933594 18.328125 179.925781 18.605469 179.925781 18.976562 C 179.925781 22.179688 180.871094 23.78125 182.761719 23.78125 C 184.535156 23.78125 185.980469 22.898438 187.101562 21.128906 C 187.769531 21.21875 188.101562 21.464844 188.101562 21.863281 Z M 187.5625 7.4375 C 187.550781 7.628906 187.453125 7.816406 187.273438 8 C 187.105469 8.164062 186.914062 8.277344 186.695312 8.328125 C 186.050781 7.515625 185.222656 6.714844 184.207031 5.925781 C 183.191406 5.125 182.15625 4.5625 181.101562 4.242188 C 181.140625 3.296875 181.578125 2.554688 182.414062 2.015625 C 183.363281 2.386719 184.347656 3.136719 185.363281 4.261719 C 186.378906 5.371094 187.113281 6.429688 187.5625 7.4375 Z M 195.527344 16.304688 C 196.171875 13.957031 196.949219 12.226562 197.863281 11.117188 C 198.773438 10.003906 199.625 9.449219 200.40625 9.449219 C 201.191406 9.449219 201.777344 9.742188 202.164062 10.320312 C 202.5625 10.914062 202.761719 11.664062 202.761719 12.570312 C 202.761719 13.472656 202.527344 14.253906 202.066406 14.910156 C 201.589844 15.570312 200.902344 15.898438 200.003906 15.898438 C 199.71875 15.898438 199.496094 15.878906 199.328125 15.839844 C 199.945312 14.949219 200.253906 14.046875 200.253906 13.128906 C 200.253906 12.484375 199.988281 12.160156 199.460938 12.160156 C 199.050781 12.160156 198.613281 12.402344 198.152344 12.878906 C 197.675781 13.367188 197.226562 14.046875 196.800781 14.910156 C 196.363281 15.789062 196.003906 16.917969 195.722656 18.300781 C 195.425781 19.695312 195.277344 21.199219 195.277344 22.8125 C 195.277344 22.992188 195.320312 23.761719 195.414062 25.117188 C 194.949219 25.15625 194.679688 25.175781 194.601562 25.175781 C 193.019531 25.175781 192.230469 24.394531 192.230469 22.832031 C 192.230469 22.472656 192.421875 21.082031 192.808594 18.667969 C 193.179688 16.242188 193.367188 14.3125 193.367188 12.878906 C 193.367188 11.433594 193.214844 10.109375 192.90625 8.910156 C 193.972656 9.320312 194.71875 9.910156 195.140625 10.671875 C 195.566406 11.445312 195.777344 12.34375 195.777344 13.363281 C 195.777344 14.382812 195.695312 15.363281 195.527344 16.304688 Z M 211.4375 10.882812 C 210.359375 10.882812 209.441406 11.503906 208.679688 12.742188 C 207.933594 13.996094 207.441406 15.460938 207.195312 17.140625 L 207.949219 17.140625 C 208.898438 17.140625 209.730469 17.003906 210.4375 16.730469 C 211.128906 16.460938 211.671875 16.113281 212.054688 15.6875 C 212.777344 14.847656 213.136719 13.90625 213.136719 12.859375 C 213.136719 12.265625 212.996094 11.789062 212.710938 11.425781 C 212.429688 11.0625 212.003906 10.882812 211.4375 10.882812 Z M 215.238281 21.863281 C 214.414062 23.21875 213.507812 24.167969 212.519531 24.710938 C 211.527344 25.253906 210.378906 25.523438 209.066406 25.523438 C 207.769531 25.523438 206.628906 24.941406 205.652344 23.78125 C 204.675781 22.632812 204.1875 21.003906 204.1875 18.902344 C 204.1875 16.511719 204.832031 14.382812 206.117188 12.511719 C 206.746094 11.605469 207.570312 10.871094 208.585938 10.300781 C 209.601562 9.746094 210.71875 9.46875 211.941406 9.46875 C 214.640625 9.46875 215.992188 10.78125 215.992188 13.402344 C 215.992188 14.976562 215.386719 16.210938 214.179688 17.101562 C 212.957031 17.992188 211.546875 18.4375 209.953125 18.4375 C 208.886719 18.4375 207.929688 18.339844 207.082031 18.144531 C 207.066406 18.328125 207.0625 18.605469 207.0625 18.976562 C 207.0625 22.179688 208.007812 23.78125 209.894531 23.78125 C 211.671875 23.78125 213.117188 22.898438 214.234375 21.128906 C 214.90625 21.21875 215.238281 21.464844 215.238281 21.863281 Z M 215.238281 21.863281 "/>
<path style=" stroke:none;fill-rule:nonzero;fill:rgb(11.372549%,11.372549%,10.588235%);fill-opacity:1;" d="M 21.632812 18.246094 L 21.632812 18.207031 C 21.226562 17.484375 20.546875 16.957031 19.75 16.742188 L 19.675781 16.742188 C 19.238281 16.609375 18.789062 16.527344 18.335938 16.492188 C 17.105469 16.324219 15.929688 15.886719 14.890625 15.210938 C 14.707031 15.101562 14.472656 15.152344 14.351562 15.332031 C 14.230469 15.507812 14.269531 15.746094 14.441406 15.878906 C 14.785156 16.101562 15.140625 16.300781 15.511719 16.476562 C 15.511719 16.527344 15.464844 16.582031 15.449219 16.640625 C 14.957031 18.371094 15.949219 20.175781 17.671875 20.679688 C 17.980469 20.769531 18.300781 20.816406 18.625 20.816406 C 19.605469 20.820312 20.535156 20.367188 21.136719 19.589844 C 21.183594 20.128906 21.152344 20.671875 21.039062 21.203125 C 20.996094 21.308594 21 21.425781 21.046875 21.527344 C 21.097656 21.628906 21.183594 21.707031 21.292969 21.742188 C 21.335938 21.746094 21.378906 21.746094 21.421875 21.742188 C 21.59375 21.738281 21.746094 21.628906 21.800781 21.464844 C 21.972656 20.746094 22.015625 19.996094 21.925781 19.261719 C 21.894531 18.90625 21.796875 18.558594 21.632812 18.246094 Z M 19.242188 17.441406 C 19.257812 17.535156 19.257812 17.628906 19.242188 17.722656 C 19.136719 18.097656 18.746094 18.316406 18.371094 18.210938 C 18 18.105469 17.78125 17.714844 17.886719 17.339844 C 17.898438 17.308594 17.914062 17.277344 17.933594 17.25 L 18.253906 17.285156 C 18.589844 17.3125 18.925781 17.367188 19.25 17.449219 Z M 19.742188 19.730469 C 19.167969 20.027344 18.5 20.085938 17.878906 19.902344 C 16.578125 19.523438 15.824219 18.160156 16.199219 16.851562 L 16.199219 16.785156 C 16.496094 16.902344 16.800781 17 17.109375 17.082031 L 17.109375 17.113281 C 16.9375 17.660156 17.085938 18.257812 17.496094 18.65625 C 17.90625 19.050781 18.507812 19.179688 19.042969 18.988281 C 19.582031 18.796875 19.960938 18.3125 20.027344 17.742188 C 20.347656 17.90625 20.621094 18.152344 20.820312 18.453125 C 20.636719 18.996094 20.257812 19.453125 19.753906 19.730469 Z M 34.261719 16.628906 C 34.261719 16.570312 34.21875 16.523438 34.195312 16.464844 C 34.566406 16.289062 34.921875 16.089844 35.265625 15.867188 C 35.4375 15.738281 35.476562 15.496094 35.355469 15.320312 C 35.238281 15.140625 35 15.089844 34.816406 15.199219 C 33.777344 15.878906 32.601562 16.316406 31.371094 16.480469 C 30.914062 16.515625 30.460938 16.597656 30.023438 16.734375 L 29.957031 16.734375 C 29.152344 16.945312 28.46875 17.476562 28.0625 18.207031 L 28.0625 18.234375 C 27.894531 18.558594 27.796875 18.917969 27.773438 19.28125 C 27.683594 20.019531 27.726562 20.765625 27.894531 21.488281 C 27.953125 21.652344 28.105469 21.761719 28.277344 21.761719 C 28.410156 21.765625 28.53125 21.703125 28.609375 21.59375 C 28.6875 21.488281 28.707031 21.347656 28.664062 21.222656 C 28.550781 20.695312 28.515625 20.148438 28.5625 19.609375 C 29.164062 20.390625 30.089844 20.84375 31.074219 20.835938 C 31.394531 20.835938 31.714844 20.792969 32.027344 20.703125 C 32.863281 20.460938 33.566406 19.898438 33.988281 19.132812 C 34.40625 18.367188 34.503906 17.46875 34.261719 16.628906 Z M 31.421875 17.285156 L 31.742188 17.25 C 31.761719 17.277344 31.777344 17.308594 31.789062 17.339844 C 31.894531 17.710938 31.679688 18.09375 31.3125 18.203125 C 31.089844 18.269531 30.84375 18.21875 30.667969 18.066406 C 30.492188 17.910156 30.40625 17.675781 30.441406 17.441406 C 30.765625 17.363281 31.09375 17.308594 31.425781 17.285156 Z M 31.8125 19.902344 C 31.191406 20.085938 30.523438 20.027344 29.949219 19.730469 C 29.445312 19.453125 29.0625 18.996094 28.875 18.449219 C 29.074219 18.148438 29.347656 17.90625 29.667969 17.742188 C 29.675781 17.8125 29.691406 17.878906 29.707031 17.941406 C 29.898438 18.582031 30.484375 19.019531 31.148438 19.019531 C 31.605469 19.007812 32.035156 18.789062 32.3125 18.421875 C 32.589844 18.050781 32.683594 17.578125 32.566406 17.132812 L 32.566406 17.097656 C 32.875 17.015625 33.179688 16.917969 33.476562 16.804688 L 33.476562 16.867188 C 33.839844 18.164062 33.097656 19.515625 31.8125 19.902344 Z M 31.8125 19.902344 "/>
<path style=" stroke:none;fill-rule:nonzero;fill:rgb(11.372549%,11.372549%,10.588235%);fill-opacity:1;" d="M 22.882812 17.609375 C 22.796875 16.398438 21.8125 15.628906 20.125 15.5 C 19.234375 15.382812 18.378906 15.074219 17.617188 14.59375 C 17.433594 14.46875 17.183594 14.519531 17.058594 14.707031 C 16.9375 14.890625 16.988281 15.140625 17.171875 15.265625 C 18.046875 15.824219 19.035156 16.179688 20.066406 16.300781 C 20.789062 16.355469 22.007812 16.609375 22.085938 17.664062 C 22.097656 17.875 22.273438 18.039062 22.488281 18.039062 L 22.511719 18.039062 C 22.734375 18.023438 22.898438 17.832031 22.882812 17.609375 Z M 29.835938 16.300781 C 30.863281 16.179688 31.851562 15.824219 32.726562 15.265625 C 32.914062 15.140625 32.964844 14.890625 32.839844 14.707031 C 32.71875 14.519531 32.46875 14.46875 32.285156 14.59375 C 31.523438 15.082031 30.664062 15.394531 29.769531 15.515625 C 28.105469 15.644531 27.09375 16.414062 27.011719 17.625 C 27.003906 17.734375 27.039062 17.839844 27.109375 17.917969 C 27.179688 18 27.28125 18.050781 27.386719 18.054688 L 27.414062 18.054688 C 27.625 18.054688 27.800781 17.890625 27.816406 17.679688 C 27.890625 16.59375 29.132812 16.363281 29.835938 16.300781 Z M 16.621094 13.5 C 16.710938 13.617188 16.855469 13.675781 17 13.652344 C 17.144531 13.628906 17.265625 13.53125 17.316406 13.394531 C 17.367188 13.253906 17.339844 13.101562 17.242188 12.988281 L 15.535156 10.882812 C 15.445312 10.765625 15.300781 10.707031 15.15625 10.730469 C 15.011719 10.75 14.890625 10.851562 14.839844 10.988281 C 14.789062 11.125 14.816406 11.28125 14.914062 11.390625 Z M 18.421875 12.332031 C 18.480469 12.488281 18.628906 12.589844 18.796875 12.589844 C 18.925781 12.589844 19.046875 12.527344 19.121094 12.417969 C 19.195312 12.3125 19.214844 12.175781 19.171875 12.054688 L 18.414062 10.074219 C 18.335938 9.867188 18.101562 9.761719 17.894531 9.84375 C 17.6875 9.921875 17.585938 10.15625 17.664062 10.363281 Z M 20.5625 12.390625 C 20.773438 12.394531 20.949219 12.230469 20.964844 12.019531 L 21.097656 10.3125 C 21.109375 10.203125 21.074219 10.097656 21.003906 10.015625 C 20.933594 9.933594 20.835938 9.882812 20.730469 9.875 C 20.621094 9.863281 20.515625 9.898438 20.433594 9.96875 C 20.351562 10.039062 20.300781 10.140625 20.296875 10.246094 L 20.160156 11.960938 C 20.152344 12.074219 20.191406 12.183594 20.269531 12.265625 C 20.34375 12.347656 20.453125 12.394531 20.5625 12.390625 Z M 20.5625 12.390625 "/>
<path style=" stroke:none;fill-rule:nonzero;fill:rgb(11.372549%,11.372549%,10.588235%);fill-opacity:1;" d="M 49.117188 26.273438 C 47.03125 25.609375 42.113281 25.667969 38.117188 25.847656 C 40.792969 22.457031 40.792969 19.175781 40.316406 17.632812 C 39.953125 16.476562 39.390625 13.558594 40.109375 12.425781 C 40.242188 12.195312 40.476562 12.039062 40.742188 12.011719 C 41.683594 11.886719 41.855469 10.902344 41.988281 10.117188 C 42.027344 9.835938 42.089844 9.558594 42.175781 9.289062 C 42.339844 9 42.5625 8.746094 42.832031 8.550781 C 43.582031 7.949219 44.167969 7.167969 44.535156 6.277344 C 45.386719 4.175781 44.246094 3.136719 44.195312 3.09375 C 44.152344 3.058594 44.101562 3.035156 44.046875 3.023438 L 43.972656 3.023438 C 43.09375 2.792969 42.164062 2.933594 41.394531 3.414062 C 41.03125 3.59375 40.582031 3.808594 39.917969 4.089844 C 38.484375 4.8125 36.753906 4.523438 35.632812 3.378906 C 33.222656 1.054688 31.523438 0.382812 24.875 0.382812 C 18.226562 0.382812 16.550781 1.058594 14.164062 3.378906 C 13.039062 4.523438 11.308594 4.8125 9.878906 4.089844 C 9.378906 3.878906 8.886719 3.652344 8.398438 3.414062 C 7.628906 2.933594 6.699219 2.792969 5.824219 3.023438 L 5.746094 3.023438 C 5.691406 3.035156 5.640625 3.058594 5.597656 3.09375 C 5.550781 3.136719 4.410156 4.167969 5.261719 6.277344 C 5.625 7.167969 6.214844 7.949219 6.964844 8.550781 C 7.230469 8.746094 7.453125 9 7.617188 9.289062 C 7.675781 9.570312 7.703125 9.851562 7.707031 10.140625 C 7.839844 10.929688 8.007812 11.910156 8.957031 12.03125 C 9.21875 12.0625 9.453125 12.214844 9.589844 12.445312 C 10.304688 13.582031 9.742188 16.496094 9.378906 17.652344 C 8.890625 19.195312 8.914062 22.492188 11.582031 25.871094 C 7.585938 25.6875 2.667969 25.628906 0.578125 26.296875 C 0.367188 26.363281 0.25 26.589844 0.320312 26.804688 C 0.386719 27.015625 0.613281 27.132812 0.824219 27.066406 C 3.015625 26.367188 8.859375 26.527344 12.167969 26.710938 L 12.304688 26.710938 L 12.652344 27.082031 C 8.539062 27.140625 5.746094 27.425781 4.347656 27.929688 C 4.210938 27.976562 4.109375 28.09375 4.082031 28.238281 C 4.054688 28.382812 4.105469 28.53125 4.21875 28.625 C 4.332031 28.71875 4.488281 28.742188 4.621094 28.6875 C 6.003906 28.1875 9.070312 27.910156 13.492188 27.878906 C 13.679688 28.039062 13.875 28.195312 14.066406 28.351562 C 10.601562 28.542969 4.960938 29 2.816406 29.964844 C 2.632812 30.0625 2.554688 30.289062 2.636719 30.480469 C 2.722656 30.675781 2.941406 30.769531 3.140625 30.699219 C 5.371094 29.714844 11.804688 29.28125 15.039062 29.113281 L 15.578125 29.5 L 15.628906 29.539062 C 12.261719 29.867188 9.957031 30.292969 8.777344 30.808594 C 8.59375 30.90625 8.515625 31.132812 8.601562 31.328125 C 8.683594 31.519531 8.902344 31.613281 9.101562 31.546875 C 10.210938 31.054688 12.554688 30.636719 15.914062 30.320312 C 15.898438 31.3125 16.019531 32.304688 16.277344 33.265625 C 17.152344 35.589844 18.347656 36.160156 19.738281 36.277344 C 19.9375 36.65625 20.214844 36.988281 20.550781 37.253906 C 19.804688 37.933594 19.1875 38.75 18.738281 39.65625 C 18.65625 39.863281 18.761719 40.097656 18.96875 40.179688 C 19.175781 40.257812 19.40625 40.15625 19.488281 39.945312 C 19.632812 39.570312 20.066406 38.871094 21.25 37.691406 C 21.589844 37.867188 21.949219 38.007812 22.320312 38.113281 C 22.058594 38.699219 21.894531 39.320312 21.828125 39.957031 C 21.820312 40.0625 21.859375 40.167969 21.929688 40.25 C 22 40.328125 22.101562 40.375 22.207031 40.382812 C 22.421875 40.382812 22.597656 40.214844 22.609375 40 C 22.679688 39.410156 22.84375 38.832031 23.097656 38.296875 C 24.257812 38.488281 25.441406 38.488281 26.601562 38.296875 C 26.851562 38.835938 27.015625 39.410156 27.085938 40 C 27.097656 40.214844 27.277344 40.382812 27.488281 40.382812 C 27.597656 40.375 27.695312 40.328125 27.765625 40.25 C 27.839844 40.167969 27.875 40.0625 27.871094 39.957031 C 27.808594 39.320312 27.648438 38.695312 27.394531 38.105469 C 27.761719 38.003906 28.121094 37.863281 28.464844 37.6875 C 29.648438 38.867188 30.070312 39.566406 30.226562 39.941406 C 30.304688 40.148438 30.539062 40.253906 30.746094 40.171875 C 30.953125 40.09375 31.054688 39.859375 30.976562 39.652344 C 30.523438 38.742188 29.910156 37.929688 29.160156 37.246094 C 29.496094 36.984375 29.773438 36.652344 29.976562 36.273438 C 31.367188 36.15625 32.5625 35.589844 33.429688 33.265625 C 33.679688 32.308594 33.796875 31.324219 33.777344 30.335938 C 37.136719 30.652344 39.488281 31.070312 40.589844 31.5625 C 40.722656 31.632812 40.886719 31.621094 41.011719 31.535156 C 41.132812 31.449219 41.199219 31.300781 41.179688 31.152344 C 41.15625 31 41.054688 30.875 40.914062 30.824219 C 39.722656 30.285156 37.378906 29.871094 33.949219 29.542969 L 34.378906 29.242188 L 34.542969 29.125 C 37.757812 29.285156 44.292969 29.722656 46.554688 30.738281 C 46.75 30.808594 46.96875 30.710938 47.054688 30.519531 C 47.136719 30.328125 47.058594 30.101562 46.875 30 C 44.699219 29.042969 39.046875 28.59375 35.589844 28.386719 C 35.792969 28.234375 35.988281 28.078125 36.183594 27.914062 C 40.617188 27.941406 43.683594 28.222656 45.070312 28.726562 C 45.277344 28.796875 45.5 28.6875 45.574219 28.480469 C 45.648438 28.277344 45.542969 28.046875 45.34375 27.96875 C 43.949219 27.464844 41.160156 27.179688 37.039062 27.117188 L 37.386719 26.746094 L 37.523438 26.746094 C 40.816406 26.582031 46.675781 26.402344 48.867188 27.101562 C 49.09375 27.171875 49.335938 27.042969 49.40625 26.816406 C 49.476562 26.585938 49.347656 26.34375 49.117188 26.273438 Z M 26.621094 36.445312 C 26.511719 36.253906 26.265625 36.1875 26.074219 36.296875 C 25.878906 36.410156 25.8125 36.65625 25.925781 36.847656 C 26.011719 36.992188 26.132812 37.226562 26.269531 37.492188 C 25.339844 37.628906 24.398438 37.628906 23.472656 37.492188 C 23.660156 37.113281 23.808594 36.855469 23.816406 36.847656 C 23.925781 36.65625 23.859375 36.410156 23.667969 36.296875 C 23.476562 36.1875 23.230469 36.253906 23.117188 36.445312 C 23.117188 36.476562 22.894531 36.835938 22.652344 37.339844 C 21.921875 37.179688 21.253906 36.804688 20.734375 36.261719 L 22.035156 36.261719 C 23.210938 36.257812 24.289062 35.609375 24.847656 34.574219 C 25.414062 35.613281 26.5 36.261719 27.683594 36.257812 L 28.984375 36.257812 C 28.464844 36.800781 27.796875 37.175781 27.066406 37.332031 C 26.824219 36.847656 26.621094 36.492188 26.601562 36.457031 Z M 35.78125 27.160156 L 35.738281 27.195312 C 35.289062 27.570312 34.789062 27.9375 34.304688 28.269531 L 33.886719 28.269531 C 33.953125 27.351562 34.125 26.523438 34.457031 26.273438 C 34.636719 26.136719 34.667969 25.878906 34.527344 25.699219 C 34.390625 25.519531 34.132812 25.488281 33.953125 25.628906 C 33.417969 26.074219 33.183594 27.050781 33.082031 28.226562 L 32.753906 28.226562 C 32.648438 28.222656 32.542969 28.257812 32.464844 28.332031 C 32.386719 28.40625 32.34375 28.511719 32.34375 28.621094 C 32.335938 28.84375 32.511719 29.027344 32.734375 29.035156 L 33.035156 29.035156 L 33.035156 29.429688 L 32.9375 29.429688 C 32.71875 29.414062 32.527344 29.578125 32.503906 29.796875 C 32.484375 30.019531 32.648438 30.214844 32.867188 30.234375 L 32.980469 30.234375 C 32.996094 31.148438 32.894531 32.058594 32.679688 32.949219 C 31.925781 34.964844 31.019531 35.390625 29.707031 35.457031 L 27.683594 35.457031 C 26.359375 35.453125 25.277344 34.386719 25.253906 33.058594 C 25.441406 32.878906 25.652344 32.726562 25.878906 32.605469 C 26.414062 32.261719 27.199219 31.789062 26.910156 31.105469 C 26.808594 30.867188 26.878906 30.753906 27.800781 30.125 L 28.136719 29.894531 C 28.539062 29.679688 28.800781 29.273438 28.832031 28.820312 C 28.808594 28.46875 28.621094 28.148438 28.324219 27.957031 C 28.144531 27.847656 27.90625 27.898438 27.789062 28.078125 C 27.683594 28.257812 27.730469 28.492188 27.902344 28.613281 C 27.945312 28.644531 28.042969 28.738281 28.046875 28.8125 C 28.050781 28.886719 27.957031 29.035156 27.691406 29.214844 L 27.359375 29.449219 C 26.488281 30.039062 25.800781 30.523438 26.183594 31.367188 C 26.140625 31.503906 25.707031 31.765625 25.46875 31.90625 C 25.257812 32.03125 25.058594 32.167969 24.863281 32.320312 C 24.671875 32.167969 24.46875 32.03125 24.257812 31.90625 C 24.003906 31.765625 23.765625 31.597656 23.546875 31.40625 C 23.925781 30.507812 23.234375 30.039062 22.367188 29.441406 L 22.035156 29.210938 C 21.78125 29.027344 21.683594 28.882812 21.683594 28.808594 C 21.683594 28.730469 21.78125 28.640625 21.820312 28.609375 C 21.996094 28.484375 22.039062 28.242188 21.925781 28.0625 C 21.808594 27.882812 21.574219 27.824219 21.386719 27.929688 C 21.09375 28.121094 20.90625 28.441406 20.878906 28.792969 C 20.914062 29.246094 21.175781 29.652344 21.574219 29.867188 L 21.914062 30.097656 C 22.839844 30.726562 22.902344 30.839844 22.800781 31.078125 C 22.511719 31.765625 23.277344 32.234375 23.835938 32.578125 C 24.050781 32.703125 24.261719 32.839844 24.457031 32.992188 C 24.453125 34.335938 23.363281 35.421875 22.027344 35.421875 L 21.191406 35.421875 C 19.199219 35.472656 17.976562 35.5 17.023438 32.917969 C 16.808594 32.027344 16.707031 31.113281 16.722656 30.199219 L 16.835938 30.199219 C 17.058594 30.179688 17.222656 29.984375 17.203125 29.761719 C 17.183594 29.539062 16.988281 29.375 16.765625 29.394531 L 16.691406 29.394531 L 16.691406 28.996094 L 16.992188 28.996094 C 17.210938 28.996094 17.390625 28.816406 17.390625 28.59375 C 17.390625 28.371094 17.210938 28.1875 16.992188 28.1875 L 16.664062 28.1875 C 16.5625 27.011719 16.351562 26.039062 15.789062 25.589844 C 15.601562 25.4375 15.328125 25.46875 15.175781 25.65625 C 15.023438 25.84375 15.050781 26.121094 15.238281 26.273438 C 15.570312 26.539062 15.726562 27.351562 15.808594 28.269531 L 15.296875 28.269531 C 14.84375 27.925781 14.386719 27.566406 13.96875 27.195312 C 13.945312 27.164062 13.917969 27.140625 13.890625 27.117188 C 13.75 26.996094 13.609375 26.871094 13.480469 26.746094 L 14.730469 26.828125 L 14.761719 26.828125 C 14.984375 26.835938 15.171875 26.664062 15.179688 26.441406 C 15.1875 26.21875 15.015625 26.03125 14.792969 26.023438 C 14.792969 26.023438 13.953125 25.957031 12.652344 25.886719 C 9.738281 22.558594 9.664062 19.324219 10.125 17.863281 C 10.125 17.820312 11.371094 13.765625 10.246094 11.984375 C 9.988281 11.5625 9.554688 11.28125 9.070312 11.214844 C 8.734375 11.171875 8.628906 10.675781 8.53125 9.984375 C 8.488281 9.644531 8.40625 9.3125 8.296875 8.992188 C 8.09375 8.578125 7.792969 8.21875 7.425781 7.945312 C 6.765625 7.425781 6.253906 6.746094 5.933594 5.96875 C 5.398438 4.699219 5.8125 4 5.988281 3.777344 C 6.378906 3.742188 6.773438 3.84375 7.097656 4.066406 C 7.132812 4.097656 11.125 7.035156 12.875 7.035156 L 13.0625 7.035156 C 11.457031 8.191406 10.515625 9.671875 10.515625 11.117188 C 10.515625 11.339844 10.695312 11.519531 10.917969 11.519531 C 11.136719 11.519531 11.316406 11.339844 11.316406 11.117188 C 11.316406 9.605469 12.710938 7.949219 14.871094 6.890625 C 15.710938 6.765625 16.519531 6.492188 17.269531 6.089844 C 17.398438 6.019531 17.480469 5.886719 17.484375 5.742188 C 17.484375 5.59375 17.410156 5.457031 17.285156 5.382812 C 17.160156 5.308594 17.003906 5.308594 16.878906 5.382812 C 15.621094 6.007812 14.226562 6.296875 12.828125 6.234375 C 12.160156 6.234375 10.878906 5.582031 9.691406 4.863281 C 11.382812 5.625 13.367188 5.253906 14.671875 3.933594 C 16.8125 1.878906 18.148438 1.160156 24.847656 1.160156 C 31.550781 1.160156 32.882812 1.882812 35.027344 3.933594 C 35.839844 4.765625 36.953125 5.238281 38.117188 5.25 C 38.746094 5.242188 39.371094 5.117188 39.960938 4.882812 C 38.777344 5.597656 37.496094 6.246094 36.832031 6.246094 C 35.429688 6.308594 34.039062 6.015625 32.78125 5.394531 C 32.589844 5.292969 32.347656 5.363281 32.242188 5.554688 C 32.136719 5.746094 32.203125 5.988281 32.390625 6.097656 C 33.144531 6.507812 33.960938 6.785156 34.804688 6.910156 C 36.949219 7.988281 38.359375 9.601562 38.359375 11.140625 C 38.359375 11.363281 38.539062 11.542969 38.757812 11.542969 C 38.980469 11.542969 39.160156 11.363281 39.160156 11.140625 C 39.160156 9.6875 38.214844 8.207031 36.613281 7.058594 L 36.847656 7.058594 C 38.597656 7.058594 42.589844 4.121094 42.625 4.089844 C 42.949219 3.867188 43.339844 3.765625 43.730469 3.796875 C 43.90625 4.027344 44.292969 4.726562 43.785156 5.992188 C 43.464844 6.769531 42.953125 7.449219 42.292969 7.964844 C 41.925781 8.242188 41.625 8.601562 41.421875 9.015625 C 41.308594 9.335938 41.230469 9.667969 41.1875 10.003906 C 41.0625 10.71875 40.960938 11.191406 40.648438 11.234375 C 40.152344 11.296875 39.707031 11.585938 39.445312 12.015625 C 38.316406 13.796875 39.550781 17.855469 39.566406 17.894531 C 40.035156 19.363281 39.953125 22.59375 37.039062 25.917969 C 35.761719 25.988281 34.898438 26.054688 34.898438 26.054688 C 34.675781 26.0625 34.503906 26.25 34.511719 26.472656 C 34.519531 26.695312 34.707031 26.871094 34.929688 26.859375 L 34.960938 26.859375 L 36.210938 26.78125 C 36.097656 26.902344 35.929688 27.03125 35.78125 27.160156 Z M 35.78125 27.160156 "/>
<path style=" stroke:none;fill-rule:nonzero;fill:rgb(11.372549%,11.372549%,10.588235%);fill-opacity:1;" d="M 32.761719 13.652344 C 32.882812 13.648438 32.996094 13.59375 33.070312 13.5 L 34.78125 11.390625 C 34.875 11.28125 34.902344 11.125 34.851562 10.988281 C 34.804688 10.851562 34.683594 10.75 34.539062 10.730469 C 34.394531 10.707031 34.246094 10.765625 34.160156 10.882812 L 32.449219 12.988281 C 32.351562 13.109375 32.332031 13.277344 32.398438 13.414062 C 32.464844 13.554688 32.605469 13.644531 32.761719 13.644531 Z M 30.777344 12.566406 C 30.824219 12.574219 30.875 12.574219 30.921875 12.566406 C 31.089844 12.566406 31.238281 12.460938 31.296875 12.304688 L 32.054688 10.328125 C 32.132812 10.117188 32.03125 9.886719 31.824219 9.804688 C 31.617188 9.726562 31.382812 9.828125 31.304688 10.035156 L 30.546875 12.015625 C 30.5 12.117188 30.5 12.238281 30.542969 12.339844 C 30.585938 12.445312 30.671875 12.527344 30.777344 12.566406 Z M 29.132812 12.398438 C 29.242188 12.390625 29.339844 12.339844 29.410156 12.257812 C 29.476562 12.175781 29.511719 12.070312 29.503906 11.960938 L 29.371094 10.246094 C 29.351562 10.023438 29.15625 9.855469 28.9375 9.875 C 28.714844 9.894531 28.546875 10.089844 28.566406 10.3125 L 28.699219 12.027344 C 28.707031 12.132812 28.757812 12.234375 28.839844 12.304688 C 28.921875 12.371094 29.027344 12.40625 29.132812 12.398438 Z M 29.132812 12.398438 "/>
<path style=" stroke:none;fill-rule:nonzero;fill:rgb(11.372549%,11.372549%,10.588235%);fill-opacity:1;" d="M 19.054688 31.027344 C 19.054688 31.339844 18.800781 31.59375 18.492188 31.59375 C 18.179688 31.59375 17.929688 31.339844 17.929688 31.027344 C 17.929688 30.71875 18.179688 30.464844 18.492188 30.464844 C 18.800781 30.464844 19.054688 30.71875 19.054688 31.027344 Z M 19.054688 31.027344 "/>
<path style=" stroke:none;fill-rule:nonzero;fill:rgb(11.372549%,11.372549%,10.588235%);fill-opacity:1;" d="M 19.242188 32.949219 C 19.242188 33.261719 18.988281 33.515625 18.679688 33.515625 C 18.367188 33.515625 18.117188 33.261719 18.117188 32.949219 C 18.117188 32.636719 18.367188 32.382812 18.679688 32.382812 C 18.988281 32.382812 19.242188 32.636719 19.242188 32.949219 Z M 19.242188 32.949219 "/>
<path style=" stroke:none;fill-rule:nonzero;fill:rgb(11.372549%,11.372549%,10.588235%);fill-opacity:1;" d="M 20.707031 34.214844 C 20.707031 34.523438 20.457031 34.777344 20.144531 34.777344 C 19.835938 34.777344 19.582031 34.523438 19.582031 34.214844 C 19.582031 33.902344 19.835938 33.648438 20.144531 33.648438 C 20.457031 33.648438 20.707031 33.902344 20.707031 34.214844 Z M 20.707031 34.214844 "/>
<path style=" stroke:none;fill-rule:nonzero;fill:rgb(11.372549%,11.372549%,10.588235%);fill-opacity:1;" d="M 21.199219 32.25 C 21.199219 32.5625 20.949219 32.816406 20.636719 32.816406 C 20.328125 32.816406 20.074219 32.5625 20.074219 32.25 C 20.074219 31.9375 20.328125 31.683594 20.636719 31.683594 C 20.949219 31.683594 21.199219 31.9375 21.199219 32.25 Z M 21.199219 32.25 "/>
<path style=" stroke:none;fill-rule:nonzero;fill:rgb(11.372549%,11.372549%,10.588235%);fill-opacity:1;" d="M 22.765625 33.238281 C 22.765625 33.550781 22.511719 33.804688 22.203125 33.804688 C 21.890625 33.804688 21.640625 33.550781 21.640625 33.238281 C 21.640625 32.925781 21.890625 32.675781 22.203125 32.675781 C 22.511719 32.675781 22.765625 32.925781 22.765625 33.238281 Z M 22.765625 33.238281 "/>
<path style=" stroke:none;fill-rule:nonzero;fill:rgb(11.372549%,11.372549%,10.588235%);fill-opacity:1;" d="M 31.769531 31.027344 C 31.769531 31.339844 31.515625 31.59375 31.207031 31.59375 C 30.894531 31.59375 30.644531 31.339844 30.644531 31.027344 C 30.644531 30.71875 30.894531 30.464844 31.207031 30.464844 C 31.515625 30.464844 31.769531 30.71875 31.769531 31.027344 Z M 31.769531 31.027344 "/>
<path style=" stroke:none;fill-rule:nonzero;fill:rgb(11.372549%,11.372549%,10.588235%);fill-opacity:1;" d="M 31.582031 32.949219 C 31.582031 33.261719 31.328125 33.515625 31.019531 33.515625 C 30.707031 33.515625 30.457031 33.261719 30.457031 32.949219 C 30.457031 32.636719 30.707031 32.382812 31.019531 32.382812 C 31.328125 32.382812 31.582031 32.636719 31.582031 32.949219 Z M 31.582031 32.949219 "/>
<path style=" stroke:none;fill-rule:nonzero;fill:rgb(11.372549%,11.372549%,10.588235%);fill-opacity:1;" d="M 30.113281 34.214844 C 30.113281 34.523438 29.863281 34.777344 29.550781 34.777344 C 29.242188 34.777344 28.988281 34.523438 28.988281 34.214844 C 28.988281 33.902344 29.242188 33.648438 29.550781 33.648438 C 29.863281 33.648438 30.113281 33.902344 30.113281 34.214844 Z M 30.113281 34.214844 "/>
<path style=" stroke:none;fill-rule:nonzero;fill:rgb(11.372549%,11.372549%,10.588235%);fill-opacity:1;" d="M 29.621094 32.25 C 29.621094 32.5625 29.371094 32.816406 29.058594 32.816406 C 28.75 32.816406 28.496094 32.5625 28.496094 32.25 C 28.496094 31.9375 28.75 31.683594 29.058594 31.683594 C 29.371094 31.683594 29.621094 31.9375 29.621094 32.25 Z M 29.621094 32.25 "/>
<path style=" stroke:none;fill-rule:nonzero;fill:rgb(11.372549%,11.372549%,10.588235%);fill-opacity:1;" d="M 28.058594 33.238281 C 28.058594 33.550781 27.804688 33.804688 27.496094 33.804688 C 27.183594 33.804688 26.933594 33.550781 26.933594 33.238281 C 26.933594 32.925781 27.183594 32.675781 27.496094 32.675781 C 27.804688 32.675781 28.058594 32.925781 28.058594 33.238281 Z M 28.058594 33.238281 "/>
<path style=" stroke:none;fill-rule:nonzero;fill:rgb(11.372549%,11.372549%,10.588235%);fill-opacity:1;" d="M 26.753906 21.703125 C 26.648438 21.695312 26.542969 21.726562 26.460938 21.796875 C 26.378906 21.867188 26.328125 21.964844 26.320312 22.074219 C 26.167969 23.179688 25.652344 24.199219 24.847656 24.972656 C 24.046875 24.199219 23.53125 23.175781 23.386719 22.070312 C 23.367188 21.84375 23.175781 21.679688 22.953125 21.695312 C 22.730469 21.714844 22.566406 21.910156 22.582031 22.132812 C 22.777344 23.566406 23.488281 24.878906 24.582031 25.824219 C 24.652344 25.882812 24.742188 25.914062 24.832031 25.914062 C 24.925781 25.914062 25.011719 25.882812 25.085938 25.824219 C 26.175781 24.878906 26.886719 23.566406 27.082031 22.132812 C 27.097656 21.925781 26.957031 21.742188 26.753906 21.703125 Z M 19.691406 23.15625 C 19.5 23.050781 19.265625 23.117188 19.15625 23.300781 C 19.046875 23.488281 18.910156 23.6875 18.761719 23.898438 C 18.046875 24.941406 16.964844 26.523438 18.492188 28.199219 C 18.644531 28.328125 18.871094 28.324219 19.019531 28.191406 C 19.167969 28.054688 19.195312 27.828125 19.078125 27.660156 C 18.066406 26.558594 18.582031 25.609375 19.421875 24.382812 C 19.578125 24.148438 19.726562 23.933594 19.84375 23.730469 C 19.90625 23.632812 19.925781 23.519531 19.894531 23.40625 C 19.863281 23.296875 19.789062 23.207031 19.691406 23.15625 Z M 30.574219 23.300781 C 30.464844 23.105469 30.21875 23.039062 30.027344 23.152344 C 29.832031 23.261719 29.765625 23.511719 29.878906 23.703125 C 29.996094 23.90625 30.144531 24.121094 30.300781 24.355469 C 31.140625 25.582031 31.65625 26.53125 30.644531 27.636719 C 30.523438 27.734375 30.472656 27.898438 30.515625 28.050781 C 30.554688 28.199219 30.679688 28.316406 30.835938 28.339844 C 30.988281 28.367188 31.144531 28.300781 31.234375 28.171875 C 32.761719 26.511719 31.679688 24.945312 30.960938 23.871094 C 30.828125 23.6875 30.6875 23.488281 30.574219 23.300781 Z M 20.503906 28.425781 C 20.574219 28.214844 20.457031 27.984375 20.246094 27.917969 C 20.035156 27.847656 19.804688 27.964844 19.738281 28.179688 C 19.429688 29.175781 19.855469 30.257812 20.761719 30.769531 C 20.953125 30.882812 21.199219 30.816406 21.3125 30.621094 C 21.421875 30.429688 21.355469 30.183594 21.164062 30.070312 C 20.585938 29.746094 20.308594 29.0625 20.503906 28.425781 Z M 28.929688 30.753906 C 29.835938 30.238281 30.261719 29.160156 29.953125 28.164062 C 29.886719 27.949219 29.660156 27.832031 29.445312 27.902344 C 29.234375 27.96875 29.121094 28.199219 29.1875 28.410156 C 29.375 29.039062 29.101562 29.71875 28.527344 30.039062 C 28.335938 30.152344 28.269531 30.398438 28.382812 30.589844 C 28.492188 30.785156 28.738281 30.851562 28.929688 30.738281 Z M 26.390625 28.507812 C 26 28.953125 25.4375 29.210938 24.847656 29.210938 C 24.253906 29.210938 23.691406 28.953125 23.300781 28.507812 C 23.152344 28.335938 22.894531 28.316406 22.722656 28.464844 C 22.550781 28.613281 22.53125 28.871094 22.679688 29.042969 C 23.21875 29.679688 24.011719 30.042969 24.84375 30.042969 C 25.675781 30.042969 26.464844 29.679688 27.007812 29.042969 C 27.15625 28.871094 27.136719 28.613281 26.964844 28.464844 C 26.792969 28.316406 26.535156 28.335938 26.386719 28.507812 Z M 14.410156 20.636719 C 14.28125 20.554688 14.121094 20.546875 13.988281 20.625 C 13.855469 20.699219 13.777344 20.839844 13.785156 20.992188 C 13.792969 21.144531 13.886719 21.28125 14.023438 21.34375 C 15.433594 22.121094 16.042969 23.273438 16.042969 23.6875 C 16.042969 23.910156 16.222656 24.089844 16.445312 24.089844 C 16.667969 24.089844 16.847656 23.910156 16.847656 23.6875 C 16.847656 22.855469 15.933594 21.480469 14.410156 20.636719 Z M 35.878906 20.800781 C 35.773438 20.609375 35.535156 20.539062 35.34375 20.636719 C 33.804688 21.480469 32.882812 22.855469 32.882812 23.691406 C 32.882812 23.914062 33.0625 24.097656 33.285156 24.097656 C 33.507812 24.097656 33.6875 23.914062 33.6875 23.691406 C 33.6875 23.277344 34.296875 22.121094 35.707031 21.347656 C 35.800781 21.296875 35.875 21.210938 35.90625 21.109375 C 35.9375 21.007812 35.929688 20.894531 35.878906 20.800781 Z M 35.878906 20.800781 "/>
<path style=" stroke:none;fill-rule:nonzero;fill:rgb(0%,0%,0%);fill-opacity:1;" d="M 61.136719 30.652344 L 60.648438 29.417969 L 58.777344 29.417969 L 58.289062 30.652344 L 57.976562 30.652344 L 59.539062 26.726562 L 59.890625 26.726562 L 61.449219 30.652344 Z M 58.886719 29.148438 L 60.542969 29.148438 L 59.859375 27.433594 L 59.714844 27.019531 L 59.710938 27.019531 L 59.566406 27.421875 Z M 66.546875 28.730469 L 68.152344 28.730469 L 68.152344 30.652344 L 67.917969 30.652344 L 67.902344 29.96875 C 67.796875 30.207031 67.628906 30.390625 67.402344 30.519531 C 67.175781 30.648438 66.894531 30.710938 66.558594 30.710938 C 66.203125 30.710938 65.890625 30.628906 65.628906 30.464844 C 65.359375 30.300781 65.152344 30.066406 65.007812 29.757812 C 64.867188 29.453125 64.792969 29.097656 64.792969 28.6875 C 64.792969 28.28125 64.867188 27.925781 65.019531 27.617188 C 65.164062 27.3125 65.371094 27.078125 65.640625 26.914062 C 65.90625 26.75 66.21875 26.667969 66.574219 26.667969 C 66.976562 26.667969 67.300781 26.746094 67.550781 26.90625 C 67.804688 27.0625 67.996094 27.304688 68.125 27.628906 L 67.847656 27.769531 C 67.757812 27.5 67.605469 27.292969 67.390625 27.152344 C 67.175781 27.007812 66.90625 26.9375 66.574219 26.9375 C 66.285156 26.9375 66.027344 27.007812 65.804688 27.152344 C 65.585938 27.292969 65.414062 27.496094 65.292969 27.757812 C 65.167969 28.023438 65.105469 28.332031 65.105469 28.6875 C 65.105469 29.234375 65.238281 29.660156 65.496094 29.972656 C 65.753906 30.285156 66.113281 30.4375 66.570312 30.4375 C 66.855469 30.4375 67.097656 30.382812 67.292969 30.269531 C 67.492188 30.15625 67.636719 30.007812 67.730469 29.824219 C 67.824219 29.640625 67.875 29.441406 67.875 29.226562 L 67.875 29.011719 L 66.546875 29.011719 Z M 72.460938 30.378906 L 74.925781 30.378906 L 74.925781 30.652344 L 72.164062 30.652344 L 72.164062 26.726562 L 74.832031 26.726562 L 74.832031 26.996094 L 72.460938 26.996094 L 72.460938 28.515625 L 74.335938 28.515625 L 74.335938 28.792969 L 72.460938 28.792969 Z M 81.75 26.726562 L 81.75 30.652344 L 81.382812 30.652344 L 79.308594 27.570312 L 79.023438 27.046875 L 79.015625 27.046875 L 79.035156 27.542969 L 79.035156 30.652344 L 78.746094 30.652344 L 78.746094 26.726562 L 79.125 26.726562 L 81.1875 29.800781 L 81.484375 30.328125 L 81.472656 29.835938 L 81.472656 26.726562 Z M 89.039062 29.65625 C 88.925781 29.992188 88.734375 30.25 88.460938 30.433594 C 88.1875 30.617188 87.855469 30.710938 87.476562 30.710938 C 87.121094 30.710938 86.808594 30.628906 86.535156 30.464844 C 86.269531 30.300781 86.0625 30.066406 85.914062 29.757812 C 85.769531 29.453125 85.699219 29.097656 85.699219 28.6875 C 85.699219 28.28125 85.769531 27.925781 85.914062 27.617188 C 86.0625 27.3125 86.269531 27.078125 86.535156 26.914062 C 86.808594 26.75 87.117188 26.667969 87.46875 26.667969 C 88.25 26.667969 88.753906 26.988281 88.988281 27.636719 L 88.695312 27.769531 C 88.605469 27.492188 88.460938 27.285156 88.257812 27.148438 C 88.058594 27.007812 87.800781 26.9375 87.484375 26.9375 C 87.195312 26.9375 86.9375 27.007812 86.714844 27.152344 C 86.492188 27.292969 86.316406 27.496094 86.195312 27.757812 C 86.074219 28.023438 86.011719 28.332031 86.011719 28.6875 C 86.011719 29.046875 86.074219 29.355469 86.195312 29.617188 C 86.3125 29.882812 86.480469 30.085938 86.703125 30.226562 C 86.921875 30.367188 87.179688 30.4375 87.476562 30.4375 C 87.792969 30.4375 88.058594 30.359375 88.28125 30.207031 C 88.5 30.050781 88.652344 29.832031 88.742188 29.546875 Z M 93.167969 30.378906 L 95.636719 30.378906 L 95.636719 30.652344 L 92.871094 30.652344 L 92.871094 26.726562 L 95.539062 26.726562 L 95.539062 26.996094 L 93.167969 26.996094 L 93.167969 28.515625 L 95.046875 28.515625 L 95.046875 28.792969 L 93.167969 28.792969 Z M 105.503906 26.726562 C 106.128906 26.726562 106.609375 26.890625 106.949219 27.222656 C 107.285156 27.554688 107.457031 28.03125 107.457031 28.660156 C 107.457031 29.300781 107.285156 29.792969 106.949219 30.136719 C 106.609375 30.480469 106.128906 30.652344 105.503906 30.652344 L 104.273438 30.652344 L 104.273438 26.726562 Z M 105.53125 30.378906 C 106.050781 30.378906 106.449219 30.230469 106.726562 29.933594 C 107.007812 29.640625 107.144531 29.214844 107.144531 28.660156 C 107.144531 28.125 107.007812 27.71875 106.726562 27.429688 C 106.449219 27.140625 106.050781 26.996094 105.53125 26.996094 L 104.570312 26.996094 L 104.570312 30.378906 Z M 111.703125 30.378906 L 114.167969 30.378906 L 114.167969 30.652344 L 111.40625 30.652344 L 111.40625 26.726562 L 114.078125 26.726562 L 114.078125 26.996094 L 111.703125 26.996094 L 111.703125 28.515625 L 113.578125 28.515625 L 113.578125 28.792969 L 111.703125 28.792969 Z M 124.742188 27.898438 L 123.957031 30.652344 L 123.589844 30.652344 L 122.371094 26.726562 L 122.691406 26.726562 L 123.773438 30.410156 L 124.796875 26.726562 L 125.140625 26.726562 L 126.164062 30.414062 L 127.261719 26.726562 L 127.566406 26.726562 L 126.34375 30.652344 L 125.980469 30.652344 L 125.1875 27.898438 L 124.972656 27.046875 L 124.964844 27.046875 Z M 131.613281 30.378906 L 134.085938 30.378906 L 134.085938 30.652344 L 131.316406 30.652344 L 131.316406 26.726562 L 133.992188 26.726562 L 133.992188 26.996094 L 131.613281 26.996094 L 131.613281 28.515625 L 133.492188 28.515625 L 133.492188 28.792969 L 131.613281 28.792969 Z M 137.90625 30.652344 L 137.90625 26.726562 L 139.285156 26.726562 C 139.714844 26.726562 140.035156 26.816406 140.246094 26.992188 C 140.453125 27.171875 140.558594 27.429688 140.558594 27.765625 C 140.558594 27.996094 140.496094 28.191406 140.371094 28.347656 C 140.25 28.507812 140.070312 28.609375 139.84375 28.660156 L 139.84375 28.664062 C 140.097656 28.703125 140.296875 28.804688 140.445312 28.972656 C 140.59375 29.140625 140.667969 29.347656 140.667969 29.59375 C 140.667969 29.929688 140.550781 30.191406 140.308594 30.375 C 140.070312 30.558594 139.726562 30.652344 139.285156 30.652344 Z M 138.203125 28.535156 L 139.292969 28.535156 C 139.929688 28.535156 140.246094 28.28125 140.246094 27.765625 C 140.246094 27.253906 139.929688 26.996094 139.292969 26.996094 L 138.203125 26.996094 Z M 138.203125 30.378906 L 139.34375 30.378906 C 139.675781 30.378906 139.929688 30.3125 140.097656 30.175781 C 140.265625 30.039062 140.351562 29.84375 140.351562 29.59375 C 140.351562 29.335938 140.265625 29.140625 140.097656 29.007812 C 139.929688 28.875 139.675781 28.808594 139.34375 28.808594 L 138.203125 28.808594 Z M 150.660156 26.726562 C 151.285156 26.726562 151.765625 26.890625 152.101562 27.222656 C 152.441406 27.554688 152.609375 28.03125 152.609375 28.660156 C 152.609375 29.300781 152.441406 29.792969 152.101562 30.136719 C 151.765625 30.480469 151.285156 30.652344 150.660156 30.652344 L 149.425781 30.652344 L 149.425781 26.726562 Z M 150.683594 30.378906 C 151.207031 30.378906 151.605469 30.230469 151.886719 29.933594 C 152.160156 29.640625 152.300781 29.214844 152.300781 28.660156 C 152.300781 28.125 152.160156 27.71875 151.886719 27.429688 C 151.605469 27.140625 151.207031 26.996094 150.683594 26.996094 L 149.722656 26.996094 L 149.722656 30.378906 Z M 156.855469 30.378906 L 159.328125 30.378906 L 159.328125 30.652344 L 156.558594 30.652344 L 156.558594 26.726562 L 159.230469 26.726562 L 159.230469 26.996094 L 156.855469 26.996094 L 156.855469 28.515625 L 158.734375 28.515625 L 158.734375 28.792969 L 156.855469 28.792969 Z M 164.355469 26.667969 C 165.089844 26.667969 165.582031 26.957031 165.832031 27.53125 L 165.578125 27.742188 C 165.476562 27.460938 165.328125 27.257812 165.132812 27.128906 C 164.9375 27.003906 164.679688 26.9375 164.363281 26.9375 C 164.132812 26.9375 163.929688 26.976562 163.761719 27.046875 C 163.59375 27.121094 163.464844 27.214844 163.375 27.335938 C 163.285156 27.460938 163.242188 27.601562 163.242188 27.753906 C 163.242188 27.902344 163.28125 28.027344 163.355469 28.128906 C 163.429688 28.226562 163.554688 28.3125 163.738281 28.382812 C 163.917969 28.449219 164.164062 28.511719 164.480469 28.570312 C 164.988281 28.65625 165.351562 28.785156 165.5625 28.953125 C 165.777344 29.117188 165.882812 29.347656 165.882812 29.640625 C 165.882812 29.851562 165.820312 30.035156 165.699219 30.199219 C 165.578125 30.363281 165.40625 30.488281 165.183594 30.574219 C 164.957031 30.664062 164.699219 30.710938 164.414062 30.710938 C 164.003906 30.710938 163.660156 30.628906 163.375 30.464844 C 163.09375 30.300781 162.898438 30.070312 162.796875 29.773438 L 163.058594 29.566406 C 163.136719 29.851562 163.296875 30.066406 163.535156 30.214844 C 163.773438 30.363281 164.070312 30.4375 164.421875 30.4375 C 164.761719 30.4375 165.035156 30.371094 165.25 30.230469 C 165.46875 30.09375 165.578125 29.902344 165.578125 29.65625 C 165.578125 29.449219 165.488281 29.28125 165.308594 29.160156 C 165.136719 29.035156 164.832031 28.9375 164.394531 28.863281 C 164.03125 28.796875 163.738281 28.71875 163.523438 28.628906 C 163.3125 28.539062 163.160156 28.425781 163.066406 28.289062 C 162.976562 28.15625 162.929688 27.988281 162.929688 27.785156 C 162.929688 27.582031 162.984375 27.398438 163.101562 27.226562 C 163.21875 27.054688 163.382812 26.917969 163.601562 26.820312 C 163.816406 26.71875 164.066406 26.667969 164.355469 26.667969 Z M 170.070312 26.726562 L 170.070312 30.652344 L 169.773438 30.652344 L 169.773438 26.726562 Z M 175.769531 28.730469 L 177.371094 28.730469 L 177.371094 30.652344 L 177.136719 30.652344 L 177.128906 29.96875 C 177.019531 30.207031 176.851562 30.390625 176.625 30.519531 C 176.398438 30.648438 176.117188 30.710938 175.78125 30.710938 C 175.425781 30.710938 175.113281 30.628906 174.847656 30.464844 C 174.582031 30.300781 174.378906 30.066406 174.234375 29.757812 C 174.089844 29.453125 174.019531 29.097656 174.019531 28.6875 C 174.019531 28.28125 174.089844 27.925781 174.238281 27.617188 C 174.386719 27.3125 174.597656 27.078125 174.863281 26.914062 C 175.132812 26.75 175.445312 26.667969 175.800781 26.667969 C 176.195312 26.667969 176.523438 26.746094 176.777344 26.90625 C 177.03125 27.0625 177.21875 27.304688 177.34375 27.628906 L 177.074219 27.769531 C 176.980469 27.5 176.828125 27.292969 176.617188 27.152344 C 176.398438 27.007812 176.125 26.9375 175.800781 26.9375 C 175.503906 26.9375 175.25 27.007812 175.027344 27.152344 C 174.808594 27.292969 174.636719 27.496094 174.511719 27.757812 C 174.390625 28.023438 174.332031 28.332031 174.332031 28.6875 C 174.332031 29.234375 174.460938 29.660156 174.71875 29.972656 C 174.976562 30.285156 175.335938 30.4375 175.792969 30.4375 C 176.078125 30.4375 176.316406 30.382812 176.515625 30.269531 C 176.710938 30.15625 176.859375 30.007812 176.953125 29.824219 C 177.050781 29.640625 177.097656 29.441406 177.097656 29.226562 L 177.097656 29.011719 L 175.769531 29.011719 Z M 184.386719 26.726562 L 184.386719 30.652344 L 184.019531 30.652344 L 181.945312 27.570312 L 181.660156 27.046875 L 181.652344 27.046875 L 181.667969 27.542969 L 181.667969 30.652344 L 181.382812 30.652344 L 181.382812 26.726562 L 181.757812 26.726562 L 183.824219 29.800781 L 184.121094 30.328125 L 184.109375 29.835938 L 184.109375 26.726562 Z M 184.386719 26.726562 "/>
</g>
</svg>
