<?xml version="1.0" encoding="UTF-8"?>
<svg width="218px" height="40px" version="1.1" viewBox="0 0 216 40" xmlns="http://www.w3.org/2000/svg">
<g>
<path d="m59.441 23.492c-0.16406-0.44141-0.25-1.0469-0.25-1.8203 0-0.77734 0.26562-3.0742 0.79297-6.8945 0.52734-3.8086 0.78906-6.8711 0.78906-9.1797 0-0.54297-0.039063-1.2852-0.11719-2.2266 1.3633 0.074218 2.2188 0.39844 2.5664 0.96875 0.17969 0.33203 0.29688 0.64844 0.34766 0.94531 0.050782 0.29688 0.078126 0.76953 0.078126 1.4141 0 0.63281-0.28906 3.043-0.86719 7.2266-0.59375 4.1797-0.89453 7.1641-0.90625 8.9453 0.089844-0.027344 0.25-0.039063 0.48047-0.039063 3.8945 0 6.7969-0.26953 8.6992-0.8125-0.12891 1.0469-0.48438 1.8594-1.0625 2.4375-0.58984 0.58203-1.3242 0.875-2.1992 0.875-0.25781 0-1.0352-0.058593-2.332-0.17578-1.3125-0.11719-2.5781-0.17578-3.8008-0.17578-1.2188 0-2.4492 0.11719-3.6836 0.35156 0.24609-0.80078 0.73438-1.4141 1.4648-1.8398zm17.766-8.9883c-0.51562 0.90625-0.91406 1.8359-1.1953 2.7891-0.28516 0.94141-0.42578 1.8516-0.42578 2.7305 0 0.86719 0.19141 1.6016 0.57812 2.207 0.38672 0.60938 0.9375 0.91016 1.6602 0.91016 1.0156 0 1.9609-0.55469 2.832-1.6641 0.89062-1.125 1.5703-2.4727 2.0469-4.0469 0.47656-1.5898 0.71484-3.0547 0.71484-4.3984 0-1.3398-0.054688-2.4453-0.15625-3.3086 0.42578-0.039062 0.69531-0.058594 0.80859-0.058594 1.5312 0 2.2969 0.78516 2.2969 2.3633 0 0.33594-0.21875 1.7305-0.65625 4.1836-0.42578 2.4531-0.63672 4.4141-0.63672 5.8867 0 1.4688 0.27734 2.7734 0.82812 3.9102-1.1289-0.23047-1.9531-0.73437-2.4688-1.5117-0.51172-0.76172-0.76953-1.8633-0.76953-3.3086 0-0.25781 0.039063-0.75 0.11719-1.4727-0.49219 1.7148-1.3438 3.0977-2.5664 4.1445-1.2344 1.0586-2.4375 1.5859-3.6055 1.5859-1.1836 0-2.1367-0.44922-2.8555-1.3555-0.71875-0.89062-1.082-2.1211-1.082-3.6992 0-1.5859 0.29688-3.1367 0.89062-4.6445 0.57812-1.5117 1.457-2.8164 2.6406-3.9141 1.168-1.1094 2.4883-1.6641 3.9531-1.6641 0.62891 0 1.3242 0.12891 2.082 0.38672-1.0664 0.26953-2.043 0.76953-2.9297 1.4922-0.875 0.72266-1.5742 1.543-2.1016 2.457zm27.172-8.2305 0.019532 0.33203c0 0.68359-0.25781 2.9297-0.76953 6.7383-0.51562 3.7969-0.77344 6.9727-0.77344 9.5273 0 1.1367 0.058593 2.0195 0.17578 2.6523-0.4375 0.039062-0.67578 0.058593-0.71484 0.058593-0.80859 0-1.4141-0.1875-1.8125-0.5625-0.38672-0.375-0.57812-0.98047-0.57812-1.8203 0-0.83984 0.30078-3.4062 0.90625-7.707 0.58984-4.2852 0.88672-7.3438 0.88672-9.1797 0-1.832-0.12109-3.0352-0.36719-3.6016 0.57813 0.078124 1.1133 0.30469 1.6016 0.67969 0.5 0.35938 0.875 0.85156 1.1172 1.4688 1.3789-0.73438 2.9062-1.1016 4.5898-1.1016 1.6719 0 2.9922 0.51563 3.957 1.5469 0.96094 1.0469 1.4453 2.3242 1.4453 3.8359 0 1.9375-0.69922 3.6797-2.1016 5.2305-1.4023 1.5352-3.293 2.3047-5.6719 2.3047-0.53906 0-1.0352-0.035156-1.4844-0.097656l-0.078126-0.87109c1.2109 0 2.2656-0.18359 3.1641-0.54297 0.89844-0.36328 1.582-0.83984 2.043-1.4336 0.91406-1.1602 1.3711-2.5195 1.3711-4.0664 0-1.125-0.35547-2.0586-1.0625-2.8086-0.70703-0.75-1.7344-1.125-3.0859-1.125-0.80859 0-1.7344 0.18359-2.7773 0.54297zm15.66 8.2305c-0.52344 0.90625-0.92969 1.8359-1.2148 2.7891-0.26953 0.94141-0.40234 1.8516-0.40234 2.7305 0 0.86719 0.19141 1.6016 0.57812 2.207 0.38672 0.60938 0.9375 0.91016 1.6562 0.91016 1.0039 0 1.9492-0.55469 2.8359-1.6641 0.875-1.125 1.5508-2.4727 2.0273-4.0469 0.48828-1.5898 0.73047-3.0547 0.73047-4.3984 0-1.3398-0.058594-2.4453-0.17188-3.3086 0.4375-0.039062 0.70703-0.058594 0.80859-0.058594 1.5312 0 2.2969 0.78516 2.2969 2.3633 0 0.33594-0.21484 1.7305-0.63672 4.1836-0.4375 2.4531-0.65625 4.4141-0.65625 5.8867 0 1.4688 0.27734 2.7734 0.82812 3.9102-1.1289-0.23047-1.9531-0.73437-2.4688-1.5117-0.51172-0.76172-0.76953-1.8633-0.76953-3.3086 0-0.25781 0.039062-0.75 0.11328-1.4727-0.48828 1.7148-1.3438 3.0977-2.5625 4.1445-1.2227 1.0586-2.4258 1.5859-3.6094 1.5859-1.1797 0-2.1328-0.44922-2.8516-1.3555-0.72266-0.89062-1.082-2.1211-1.082-3.6992 0-1.5859 0.29688-3.1367 0.88672-4.6445 0.58203-1.5117 1.4609-2.8164 2.6445-3.9141 1.1836-1.1094 2.5-1.6641 3.9531-1.6641 0.62891 0 1.3242 0.12891 2.082 0.38672-1.0664 0.26953-2.0391 0.76953-2.9102 1.4922-0.88672 0.72266-1.5898 1.543-2.1055 2.457zm25.828-1.1797c0 0.82422-0.17578 2.293-0.52344 4.3945-0.34766 2.1055-0.51953 3.6406-0.51953 4.6094 0 0.95703 0.11719 1.6484 0.34766 2.0742 0.23047 0.42578 0.62891 0.78516 1.1953 1.082-0.24609 0.027344-0.57813 0.039063-1.0039 0.039063-1.2227 0-2.0898-0.23047-2.6016-0.69531-0.51562-0.46484-0.77344-1.293-0.77344-2.4805 0-0.67188 0.17969-2.0195 0.53906-4.0469 0.36328-2.0391 0.54297-3.5391 0.54297-4.4922 0-1.1875-0.36328-1.7812-1.082-1.7812-1.1562 0-2.3516 1.0195-3.5859 3.0586-1.2344 2.0391-1.8516 4.5-1.8516 7.3789 0 1.1367 0.058594 2.0195 0.17188 2.6523-0.47656 0.039062-0.75781 0.058593-0.84766 0.058593-1.582 0-2.3711-0.78125-2.3711-2.3438 0-0.35938 0.19141-1.75 0.57812-4.1641 0.37109-2.4258 0.55859-4.3555 0.55859-5.7891 0-1.4453-0.15234-2.7695-0.46094-3.9688 1.0664 0.41016 1.8125 1 2.2344 1.7617 0.42578 0.77344 0.63672 1.6523 0.63672 2.6328 0 0.98047-0.10938 2.125-0.32812 3.4258 0.59375-2.0391 1.5234-3.7539 2.7969-5.1484 1.2617-1.4102 2.4453-2.1133 3.5508-2.1133 1.8633 0 2.7969 1.2852 2.7969 3.8555zm12.938-3.0586c0 0.74609-0.14063 1.2695-0.42188 1.5664-0.29687 0.28516-0.71875 0.42578-1.2734 0.42578h-1.9492c-0.074218 0.47656-0.26172 1.6016-0.55859 3.3711-0.61719 3.3555-0.92578 5.8945-0.92578 7.6094 0 1.7188 0.12891 2.8594 0.38672 3.4297-1.0273-0.38672-1.7617-0.96484-2.1992-1.7266-0.42578-0.77344-0.63672-1.707-0.63672-2.8047 0-1.1133 0.066407-2.1562 0.19531-3.1406 0.14062-0.98047 0.33203-2.1289 0.57812-3.4453 0.25391-1.3281 0.4375-2.3867 0.53906-3.1758-1.0273 0.14062-2.0391 0.43359-3.0273 0.87109-0.027344-0.29688-0.039063-0.5625-0.039063-0.79297 0-0.86719 0.28125-1.4453 0.84766-1.7422 0.57813-0.29688 1.4062-0.44531 2.4883-0.44531 0.12891-1.3438 0.19141-2.3438 0.19141-3.0039 0-0.65625-0.003906-1.1875-0.019531-1.5859v-0.89062c0.82422 0.12891 1.4609 0.49609 1.9102 1.1016 0.44922 0.59375 0.67578 1.4219 0.67578 2.4805 0 0.54297-0.042968 1.1992-0.13672 1.9727 1.5703 0 2.6758-0.26172 3.3203-0.79297 0.039062 0.25781 0.054688 0.49609 0.054688 0.71875zm5.0742 6.4648c0.58984-2.0391 1.5039-3.7539 2.7383-5.1484 1.2344-1.4102 2.3906-2.1133 3.4727-2.1133 1.0781 0 1.8438 0.33203 2.293 0.98828 0.45313 0.66016 0.67578 1.5547 0.67578 2.6914 0 1.125-0.17188 2.707-0.51953 4.7461-0.34766 2.0508-0.51953 3.543-0.51953 4.4727 0 0.92969 0.11328 1.6094 0.34375 2.0352 0.23438 0.42578 0.625 0.78516 1.1797 1.082-0.23438 0.027344-0.5625 0.039063-0.98438 0.039063-1.1562 0-2.0117-0.23828-2.5664-0.71484-0.53906-0.48047-0.80859-1.2969-0.80859-2.4609 0-0.67188 0.17969-2.0195 0.53906-4.0469 0.35938-2.0391 0.53906-3.5391 0.53906-4.4922 0-1.1875-0.41797-1.7812-1.2539-1.7812-0.48828 0-1.0273 0.25781-1.6172 0.77344-0.59375 0.50391-1.1641 1.1953-1.7188 2.0703-0.53906 0.87891-0.99609 1.9961-1.3672 3.3516-0.375 1.3438-0.5625 2.668-0.5625 3.9688 0 1.3203 0.058593 2.293 0.17578 2.9258-0.4375 0.039062-0.68359 0.058593-0.73438 0.058593-0.84766 0-1.4727-0.17969-1.8711-0.54297-0.41016-0.35937-0.61719-0.92969-0.61719-1.7031 0-0.76172 0.16016-2.2422 0.48438-4.4336 0.94922-6.7266 1.4258-11.836 1.4258-15.32 0-1.5742-0.10156-2.6328-0.30859-3.1758 1.043 0.38672 1.7734 0.94922 2.1992 1.6836 0.42578 0.75 0.63672 1.7695 0.63672 3.0625 0 0.90234-0.17969 2.8008-0.53906 5.6914-0.34766 2.8945-0.58594 4.9922-0.71484 6.293zm20.426-5.8477c-1.082 0-1.9961 0.62109-2.7383 1.8594-0.76172 1.2539-1.2617 2.7188-1.5078 4.3984h0.75391c0.95312 0 1.7812-0.13672 2.4883-0.41016 0.69531-0.26953 1.2344-0.61719 1.6211-1.043 0.71875-0.83984 1.0781-1.7812 1.0781-2.8281 0-0.59375-0.14062-1.0703-0.42578-1.4336-0.28125-0.36328-0.70703-0.54297-1.2695-0.54297zm3.7969 10.98c-0.82031 1.3555-1.7266 2.3047-2.7188 2.8477-0.98828 0.54297-2.1406 0.8125-3.4531 0.8125-1.2969 0-2.4336-0.58203-3.4141-1.7422-0.97656-1.1484-1.4648-2.7773-1.4648-4.8789 0-2.3906 0.64453-4.5195 1.9297-6.3906 0.62891-0.90625 1.4531-1.6406 2.4688-2.2109 1.0156-0.55469 2.1328-0.83203 3.3555-0.83203 2.6992 0 4.0508 1.3125 4.0508 3.9336 0 1.5742-0.60547 2.8086-1.8125 3.6992-1.2227 0.89063-2.6289 1.3359-4.2266 1.3359-1.0664 0-2.0234-0.097656-2.8711-0.29297-0.011718 0.18359-0.019531 0.46094-0.019531 0.83203 0 3.2031 0.94531 4.8047 2.8359 4.8047 1.7734 0 3.2188-0.88281 4.3398-2.6523 0.66797 0.089844 1 0.33594 1 0.73438zm-0.53906-14.426c-0.011719 0.19141-0.10938 0.37891-0.28906 0.5625-0.16797 0.16406-0.35938 0.27734-0.57813 0.32812-0.64453-0.8125-1.4727-1.6133-2.4883-2.4023-1.0156-0.80078-2.0508-1.3633-3.1055-1.6836 0.039063-0.94531 0.47656-1.6875 1.3125-2.2266 0.94922 0.37109 1.9336 1.1211 2.9492 2.2461 1.0156 1.1094 1.75 2.168 2.1992 3.1758zm7.9648 8.8672c0.64453-2.3477 1.4219-4.0781 2.3359-5.1875 0.91016-1.1133 1.7617-1.668 2.543-1.668 0.78516 0 1.3711 0.29297 1.7578 0.87109 0.39844 0.59375 0.59766 1.3438 0.59766 2.25 0 0.90234-0.23438 1.6836-0.69531 2.3398-0.47656 0.66016-1.1641 0.98828-2.0625 0.98828-0.28516 0-0.50781-0.019532-0.67578-0.058594 0.61719-0.89062 0.92578-1.793 0.92578-2.7109 0-0.64453-0.26562-0.96875-0.79297-0.96875-0.41016 0-0.84766 0.24219-1.3086 0.71875-0.47656 0.48828-0.92578 1.168-1.3516 2.0312-0.4375 0.87891-0.79688 2.0078-1.0781 3.3906-0.29688 1.3945-0.44531 2.8984-0.44531 4.5117 0 0.17969 0.042968 0.94922 0.13672 2.3047-0.46484 0.039062-0.73437 0.058593-0.8125 0.058593-1.582 0-2.3711-0.78125-2.3711-2.3438 0-0.35938 0.19141-1.75 0.57812-4.1641 0.37109-2.4258 0.55859-4.3555 0.55859-5.7891 0-1.4453-0.15234-2.7695-0.46094-3.9688 1.0664 0.41016 1.8125 1 2.2344 1.7617 0.42578 0.77344 0.63672 1.6719 0.63672 2.6914s-0.082032 2-0.25 2.9414zm15.91-5.4219c-1.0781 0-1.9961 0.62109-2.7578 1.8594-0.74609 1.2539-1.2383 2.7188-1.4844 4.3984h0.75391c0.94922 0 1.7812-0.13672 2.4883-0.41016 0.69141-0.26953 1.2344-0.61719 1.6172-1.043 0.72266-0.83984 1.082-1.7812 1.082-2.8281 0-0.59375-0.14062-1.0703-0.42578-1.4336-0.28125-0.36328-0.70703-0.54297-1.2734-0.54297zm3.8008 10.98c-0.82422 1.3555-1.7305 2.3047-2.7188 2.8477-0.99219 0.54297-2.1406 0.8125-3.4531 0.8125-1.2969 0-2.4375-0.58203-3.4141-1.7422-0.97656-1.1484-1.4648-2.7773-1.4648-4.8789 0-2.3906 0.64453-4.5195 1.9297-6.3906 0.62891-0.90625 1.4531-1.6406 2.4688-2.2109 1.0156-0.55469 2.1328-0.83203 3.3555-0.83203 2.6992 0 4.0508 1.3125 4.0508 3.9336 0 1.5742-0.60547 2.8086-1.8125 3.6992-1.2227 0.89063-2.6328 1.3359-4.2266 1.3359-1.0664 0-2.0234-0.097656-2.8711-0.29297-0.015625 0.18359-0.019531 0.46094-0.019531 0.83203 0 3.2031 0.94531 4.8047 2.832 4.8047 1.7773 0 3.2227-0.88281 4.3398-2.6523 0.67188 0.089844 1.0039 0.33594 1.0039 0.73438z"/>
<path d="m21.633 18.246v-0.039063c-0.40625-0.72266-1.0859-1.25-1.8828-1.4648h-0.074219c-0.4375-0.13281-0.88672-0.21484-1.3398-0.25-1.2305-0.16797-2.4062-0.60547-3.4453-1.2812-0.18359-0.10938-0.41797-0.058594-0.53906 0.12109-0.12109 0.17578-0.082031 0.41406 0.089844 0.54688 0.34375 0.22266 0.69922 0.42188 1.0703 0.59766 0 0.050782-0.046875 0.10547-0.0625 0.16406-0.49219 1.7305 0.5 3.5352 2.2227 4.0391 0.30859 0.089843 0.62891 0.13672 0.95312 0.13672 0.98047 0.003906 1.9102-0.44922 2.5117-1.2266 0.046875 0.53906 0.015625 1.082-0.097657 1.6133-0.042968 0.10547-0.039062 0.22266 0.007813 0.32422 0.050781 0.10156 0.13672 0.17969 0.24609 0.21484 0.042969 0.003906 0.085937 0.003906 0.12891 0 0.17188-0.003907 0.32422-0.11328 0.37891-0.27734 0.17188-0.71875 0.21484-1.4688 0.125-2.2031-0.03125-0.35547-0.12891-0.70312-0.29297-1.0156zm-2.3906-0.80469c0.015624 0.09375 0.015624 0.1875 0 0.28125-0.10547 0.375-0.49609 0.59375-0.87109 0.48828-0.37109-0.10547-0.58984-0.49609-0.48438-0.87109 0.011719-0.03125 0.027343-0.0625 0.046875-0.089844l0.32031 0.035156c0.33594 0.027344 0.67188 0.082032 0.99609 0.16406zm0.5 2.2891c-0.57422 0.29688-1.2422 0.35547-1.8633 0.17188-1.3008-0.37891-2.0547-1.7422-1.6797-3.0508v-0.066406c0.29688 0.11719 0.60156 0.21484 0.91016 0.29688v0.03125c-0.17188 0.54688-0.023437 1.1445 0.38672 1.543 0.41016 0.39453 1.0117 0.52344 1.5469 0.33203 0.53906-0.19141 0.91797-0.67578 0.98438-1.2461 0.32031 0.16406 0.59375 0.41016 0.79297 0.71094-0.18359 0.54297-0.5625 1-1.0664 1.2773zm14.52-3.1016c0-0.058594-0.042969-0.10547-0.066407-0.16406 0.37109-0.17578 0.72656-0.375 1.0703-0.59766 0.17188-0.12891 0.21094-0.37109 0.089844-0.54688-0.11719-0.17969-0.35547-0.23047-0.53906-0.12109-1.0391 0.67969-2.2148 1.1172-3.4453 1.2812-0.45703 0.035156-0.91016 0.11719-1.3477 0.25391h-0.066407c-0.80469 0.21094-1.4883 0.74219-1.8945 1.4727v0.027344c-0.16797 0.32422-0.26562 0.68359-0.28906 1.0469-0.089844 0.73828-0.046876 1.4844 0.12109 2.207 0.058594 0.16406 0.21094 0.27344 0.38281 0.27344 0.13281 0.003906 0.25391-0.058594 0.33203-0.16797 0.078125-0.10547 0.097656-0.24609 0.054687-0.37109-0.11328-0.52734-0.14844-1.0742-0.10156-1.6133 0.60156 0.78125 1.5273 1.2344 2.5117 1.2266 0.32031 0 0.64062-0.042969 0.95312-0.13281 0.83594-0.24219 1.5391-0.80469 1.9609-1.5703 0.41797-0.76562 0.51562-1.6641 0.27344-2.5039zm-2.8398 0.65625 0.32031-0.035156c0.019531 0.027344 0.035156 0.058594 0.046874 0.089844 0.10547 0.37109-0.10937 0.75391-0.47656 0.86328-0.22266 0.066406-0.46875 0.015625-0.64453-0.13672-0.17578-0.15625-0.26172-0.39062-0.22656-0.625 0.32422-0.078125 0.65234-0.13281 0.98438-0.15625zm0.39062 2.6172c-0.62109 0.18359-1.2891 0.125-1.8633-0.17188-0.50391-0.27734-0.88672-0.73438-1.0742-1.2812 0.19922-0.30078 0.47266-0.54297 0.79297-0.70703 0.007812 0.070312 0.023437 0.13672 0.039062 0.19922 0.19141 0.64062 0.77734 1.0781 1.4414 1.0781 0.45703-0.011719 0.88672-0.23047 1.1641-0.59766 0.27734-0.37109 0.37109-0.84375 0.25391-1.2891v-0.035156c0.30859-0.082031 0.61328-0.17969 0.91016-0.29297v0.0625c0.36328 1.2969-0.37891 2.6484-1.6641 3.0352z" fill="#1c1c1a"/>
<path d="m22.883 17.609c-0.085937-1.2109-1.0703-1.9805-2.7578-2.1094-0.89062-0.11719-1.7461-0.42578-2.5078-0.90625-0.18359-0.125-0.43359-0.074219-0.55859 0.11328-0.12109 0.18359-0.070313 0.43359 0.11328 0.55859 0.875 0.55859 1.8633 0.91406 2.8945 1.0352 0.72266 0.054688 1.9414 0.30859 2.0195 1.3633 0.011718 0.21094 0.1875 0.375 0.40234 0.375h0.023438c0.22266-0.015624 0.38672-0.20703 0.37109-0.42969zm6.9531-1.3086c1.0273-0.12109 2.0156-0.47656 2.8906-1.0352 0.1875-0.125 0.23828-0.375 0.11328-0.55859-0.12109-0.1875-0.37109-0.23828-0.55469-0.11328-0.76172 0.48828-1.6211 0.80078-2.5156 0.92188-1.6641 0.12891-2.6758 0.89844-2.7578 2.1094-0.007813 0.10938 0.027343 0.21484 0.097656 0.29297 0.070313 0.082031 0.17188 0.13281 0.27734 0.13672h0.027343c0.21094 0 0.38672-0.16406 0.40234-0.375 0.074219-1.0859 1.3164-1.3164 2.0195-1.3789zm-13.215-2.8008c0.089844 0.11719 0.23438 0.17578 0.37891 0.15234 0.14453-0.023438 0.26562-0.12109 0.31641-0.25781 0.050782-0.14062 0.023438-0.29297-0.074218-0.40625l-1.707-2.1055c-0.089844-0.11719-0.23438-0.17578-0.37891-0.15234-0.14453 0.019531-0.26562 0.12109-0.31641 0.25781-0.050782 0.13672-0.023438 0.29297 0.074218 0.40234zm1.8008-1.168c0.058594 0.15625 0.20703 0.25781 0.375 0.25781 0.12891 0 0.25-0.0625 0.32422-0.17188 0.074218-0.10547 0.09375-0.24219 0.050781-0.36328l-0.75781-1.9805c-0.078124-0.20703-0.3125-0.3125-0.51953-0.23047-0.20703 0.078125-0.30859 0.3125-0.23047 0.51953zm2.1406 0.058594c0.21094 0.003906 0.38672-0.16016 0.40234-0.37109l0.13281-1.707c0.011719-0.10938-0.023437-0.21484-0.09375-0.29688-0.070312-0.082031-0.16797-0.13281-0.27344-0.14062-0.10938-0.011719-0.21484 0.023438-0.29688 0.09375-0.082032 0.070312-0.13281 0.17188-0.13672 0.27734l-0.13672 1.7148c-0.007812 0.11328 0.03125 0.22266 0.10938 0.30469 0.074219 0.082031 0.18359 0.12891 0.29297 0.125z" fill="#1c1c1a"/>
<path d="m49.117 26.273c-2.0859-0.66406-7.0039-0.60547-11-0.42578 2.6758-3.3906 2.6758-6.6719 2.1992-8.2148-0.36328-1.1562-0.92578-4.0742-0.20703-5.207 0.13281-0.23047 0.36719-0.38672 0.63281-0.41406 0.94141-0.125 1.1133-1.1094 1.2461-1.8945 0.039063-0.28125 0.10156-0.55859 0.1875-0.82813 0.16406-0.28906 0.38672-0.54297 0.65625-0.73828 0.75-0.60156 1.3359-1.3828 1.7031-2.2734 0.85156-2.1016-0.28906-3.1406-0.33984-3.1836-0.042968-0.035156-0.09375-0.058594-0.14844-0.070312h-0.074219c-0.87891-0.23047-1.8086-0.089844-2.5781 0.39062-0.36328 0.17969-0.8125 0.39453-1.4766 0.67578-1.4336 0.72266-3.1641 0.43359-4.2852-0.71094-2.4102-2.3242-4.1094-2.9961-10.758-2.9961s-8.3242 0.67578-10.711 2.9961c-1.125 1.1445-2.8555 1.4336-4.2852 0.71094-0.5-0.21094-0.99219-0.4375-1.4805-0.67578-0.76953-0.48047-1.6992-0.62109-2.5742-0.39062h-0.078125c-0.054688 0.011718-0.10547 0.035156-0.14844 0.070312-0.046875 0.042969-1.1875 1.0742-0.33594 3.1836 0.36328 0.89062 0.95312 1.6719 1.7031 2.2734 0.26562 0.19531 0.48828 0.44922 0.65234 0.73828 0.058593 0.28125 0.085937 0.5625 0.089843 0.85156 0.13281 0.78906 0.30078 1.7695 1.25 1.8906 0.26172 0.03125 0.49609 0.18359 0.63281 0.41406 0.71484 1.1367 0.15234 4.0508-0.21094 5.207-0.48828 1.543-0.46484 4.8398 2.2031 8.2188-3.9961-0.18359-8.9141-0.24219-11.004 0.42578-0.21094 0.066406-0.32812 0.29297-0.25781 0.50781 0.066407 0.21094 0.29297 0.32812 0.50391 0.26172 2.1914-0.69922 8.0352-0.53906 11.344-0.35547h0.13672l0.34766 0.37109c-4.1133 0.058594-6.9062 0.34375-8.3047 0.84766-0.13672 0.046874-0.23828 0.16406-0.26562 0.30859-0.027343 0.14453 0.023438 0.29297 0.13672 0.38672s0.26953 0.11719 0.40234 0.0625c1.3828-0.5 4.4492-0.77734 8.8711-0.80859 0.1875 0.16016 0.38281 0.31641 0.57422 0.47266-3.4648 0.19141-9.1055 0.64844-11.25 1.6133-0.18359 0.097656-0.26172 0.32422-0.17969 0.51562 0.085937 0.19531 0.30469 0.28906 0.50391 0.21875 2.2305-0.98438 8.6641-1.418 11.898-1.5859l0.53906 0.38672 0.050781 0.039062c-3.3672 0.32813-5.6719 0.75391-6.8516 1.2695-0.18359 0.097656-0.26172 0.32422-0.17578 0.51953 0.082032 0.19141 0.30078 0.28516 0.5 0.21875 1.1094-0.49219 3.4531-0.91016 6.8125-1.2266-0.015624 0.99219 0.10547 1.9844 0.36328 2.9453 0.875 2.3242 2.0703 2.8945 3.4609 3.0117 0.19922 0.37891 0.47656 0.71094 0.8125 0.97656-0.74609 0.67969-1.3633 1.4961-1.8125 2.4023-0.082031 0.20703 0.023438 0.44141 0.23047 0.52344 0.20703 0.078124 0.4375-0.023438 0.51953-0.23438 0.14453-0.375 0.57812-1.0742 1.7617-2.2539 0.33984 0.17578 0.69922 0.31641 1.0703 0.42188-0.26172 0.58594-0.42578 1.207-0.49219 1.8438-0.007813 0.10547 0.03125 0.21094 0.10156 0.29297 0.070312 0.078125 0.17187 0.125 0.27734 0.13281 0.21484 0 0.39062-0.16797 0.40234-0.38281 0.070313-0.58984 0.23438-1.168 0.48828-1.7031 1.1602 0.19141 2.3438 0.19141 3.5039 0 0.25 0.53906 0.41406 1.1133 0.48438 1.7031 0.011718 0.21484 0.19141 0.38281 0.40234 0.38281 0.10938-0.007812 0.20703-0.054687 0.27734-0.13281 0.074219-0.082031 0.10938-0.1875 0.10547-0.29297-0.0625-0.63672-0.22266-1.2617-0.47656-1.8516 0.36719-0.10156 0.72656-0.24219 1.0703-0.41797 1.1836 1.1797 1.6055 1.8789 1.7617 2.2539 0.078126 0.20703 0.3125 0.3125 0.51953 0.23047 0.20703-0.078125 0.30859-0.3125 0.23047-0.51953-0.45312-0.91016-1.0664-1.7227-1.8164-2.4062 0.33594-0.26172 0.61328-0.59375 0.81641-0.97266 1.3906-0.11719 2.5859-0.68359 3.4531-3.0078 0.25-0.95703 0.36719-1.9414 0.34766-2.9297 3.3594 0.31641 5.7109 0.73437 6.8125 1.2266 0.13281 0.070312 0.29688 0.058594 0.42188-0.027344 0.12109-0.085937 0.1875-0.23438 0.16797-0.38281-0.023438-0.15234-0.125-0.27734-0.26563-0.32812-1.1914-0.53906-3.5352-0.95312-6.9648-1.2812l0.42969-0.30078 0.16406-0.11719c3.2148 0.16016 9.75 0.59766 12.012 1.6133 0.19531 0.070313 0.41406-0.027343 0.5-0.21875 0.082031-0.19141 0.003906-0.41797-0.17969-0.51953-2.1758-0.95703-7.8281-1.4062-11.285-1.6133 0.20312-0.15234 0.39844-0.30859 0.59375-0.47266 4.4336 0.027344 7.5 0.30859 8.8867 0.8125 0.20703 0.070313 0.42969-0.039062 0.50391-0.24609 0.074219-0.20312-0.03125-0.43359-0.23047-0.51172-1.3945-0.50391-4.1836-0.78906-8.3047-0.85156l0.34766-0.37109h0.13672c3.293-0.16406 9.1523-0.34375 11.344 0.35547 0.22656 0.070313 0.46875-0.058593 0.53906-0.28516 0.070312-0.23047-0.058594-0.47266-0.28906-0.54297zm-22.496 10.172c-0.10938-0.19141-0.35547-0.25781-0.54688-0.14844-0.19531 0.11328-0.26172 0.35938-0.14844 0.55078 0.085938 0.14453 0.20703 0.37891 0.34375 0.64453-0.92969 0.13672-1.8711 0.13672-2.7969 0 0.1875-0.37891 0.33594-0.63672 0.34375-0.64453 0.10938-0.19141 0.042969-0.4375-0.14844-0.55078-0.19141-0.10938-0.4375-0.042969-0.55078 0.14844 0 0.03125-0.22266 0.39063-0.46484 0.89453-0.73047-0.16016-1.3984-0.53516-1.918-1.0781h1.3008c1.1758-0.003907 2.2539-0.65234 2.8125-1.6875 0.56641 1.0391 1.6523 1.6875 2.8359 1.6836h1.3008c-0.51953 0.54297-1.1875 0.91797-1.918 1.0742-0.24219-0.48438-0.44531-0.83984-0.46484-0.875zm9.1602-9.2852-0.042969 0.035156c-0.44922 0.375-0.94922 0.74219-1.4336 1.0742h-0.41797c0.066406-0.91797 0.23828-1.7461 0.57031-1.9961 0.17969-0.13672 0.21094-0.39453 0.070313-0.57422-0.13672-0.17969-0.39453-0.21094-0.57422-0.070313-0.53516 0.44531-0.76953 1.4219-0.87109 2.5977h-0.32812c-0.10547-0.003906-0.21094 0.03125-0.28906 0.10547s-0.12109 0.17969-0.12109 0.28906c-0.007812 0.22266 0.16797 0.40625 0.39062 0.41406h0.30078v0.39453h-0.097656c-0.21875-0.015626-0.41016 0.14844-0.43359 0.36719-0.019531 0.22266 0.14453 0.41797 0.36328 0.4375h0.11328c0.015625 0.91406-0.085938 1.8242-0.30078 2.7148-0.75391 2.0156-1.6602 2.4414-2.9727 2.5078h-2.0234c-1.3242-0.003906-2.4062-1.0703-2.4297-2.3984 0.1875-0.17969 0.39844-0.33203 0.625-0.45312 0.53516-0.34375 1.3203-0.81641 1.0312-1.5-0.10156-0.23828-0.03125-0.35156 0.89062-0.98047l0.33594-0.23047c0.40234-0.21484 0.66406-0.62109 0.69531-1.0742-0.023437-0.35156-0.21094-0.67187-0.50781-0.86328-0.17969-0.10938-0.41797-0.058593-0.53516 0.12109-0.10547 0.17969-0.058593 0.41406 0.11328 0.53516 0.042968 0.03125 0.14062 0.125 0.14453 0.19922s-0.089844 0.22266-0.35547 0.40234l-0.33203 0.23438c-0.87109 0.58984-1.5586 1.0742-1.1758 1.918-0.042969 0.13672-0.47656 0.39844-0.71484 0.53906-0.21094 0.125-0.41016 0.26172-0.60547 0.41406-0.19141-0.15234-0.39453-0.28906-0.60547-0.41406-0.25391-0.14062-0.49219-0.30859-0.71094-0.5 0.37891-0.89844-0.3125-1.3672-1.1797-1.9648l-0.33203-0.23047c-0.25391-0.18359-0.35156-0.32813-0.35156-0.40234 0-0.078125 0.097656-0.16797 0.13672-0.19922 0.17578-0.125 0.21875-0.36719 0.10547-0.54688-0.11719-0.17969-0.35156-0.23828-0.53906-0.13281-0.29297 0.19141-0.48047 0.51172-0.50781 0.86328 0.035156 0.45312 0.29688 0.85938 0.69531 1.0742l0.33984 0.23047c0.92578 0.62891 0.98828 0.74219 0.88672 0.98047-0.28906 0.6875 0.47656 1.1562 1.0352 1.5 0.21484 0.125 0.42578 0.26172 0.62109 0.41406-0.003906 1.3438-1.0938 2.4297-2.4297 2.4297h-0.83594c-1.9922 0.050781-3.2148 0.078125-4.168-2.5039-0.21484-0.89062-0.31641-1.8047-0.30078-2.7188h0.11328c0.22266-0.019531 0.38672-0.21484 0.36719-0.4375-0.019531-0.22266-0.21484-0.38672-0.4375-0.36719h-0.074219v-0.39844h0.30078c0.21875 0 0.39844-0.17969 0.39844-0.40234s-0.17969-0.40625-0.39844-0.40625h-0.32813c-0.10156-1.1758-0.3125-2.1484-0.875-2.5977-0.1875-0.15234-0.46094-0.12109-0.61328 0.066406-0.15234 0.1875-0.125 0.46484 0.0625 0.61719 0.33203 0.26562 0.48828 1.0781 0.57031 1.9961h-0.51172c-0.45312-0.34375-0.91016-0.70312-1.3281-1.0742-0.023438-0.03125-0.050781-0.054687-0.078125-0.078124-0.14062-0.12109-0.28125-0.24609-0.41016-0.37109l1.25 0.082031h0.03125c0.22266 0.007813 0.41016-0.16406 0.41797-0.38672 0.007812-0.22266-0.16406-0.41016-0.38672-0.41797 0 0-0.83984-0.066407-2.1406-0.13672-2.9141-3.3281-2.9883-6.5625-2.5273-8.0234 0-0.042969 1.2461-4.0977 0.12109-5.8789-0.25781-0.42188-0.69141-0.70312-1.1758-0.76953-0.33594-0.042969-0.44141-0.53906-0.53906-1.2305-0.042969-0.33984-0.125-0.67188-0.23438-0.99219-0.20312-0.41406-0.50391-0.77344-0.87109-1.0469-0.66016-0.51953-1.1719-1.1992-1.4922-1.9766-0.53516-1.2695-0.12109-1.9688 0.054687-2.1914 0.39062-0.035156 0.78516 0.066406 1.1094 0.28906 0.035156 0.03125 4.0273 2.9688 5.7773 2.9688h0.1875c-1.6055 1.1562-2.5469 2.6367-2.5469 4.082 0 0.22266 0.17969 0.40234 0.40234 0.40234 0.21875 0 0.39844-0.17969 0.39844-0.40234 0-1.5117 1.3945-3.168 3.5547-4.2266 0.83984-0.125 1.6484-0.39844 2.3984-0.80078 0.12891-0.070313 0.21094-0.20312 0.21484-0.34766 0-0.14844-0.074219-0.28516-0.19922-0.35938-0.125-0.074218-0.28125-0.074218-0.40625 0-1.2578 0.625-2.6523 0.91406-4.0508 0.85156-0.66797 0-1.9492-0.65234-3.1367-1.3711 1.6914 0.76172 3.6758 0.39062 4.9805-0.92969 2.1406-2.0547 3.4766-2.7734 10.176-2.7734 6.7031 0 8.0352 0.72266 10.18 2.7734 0.8125 0.83203 1.9258 1.3047 3.0898 1.3164 0.62891-0.007812 1.2539-0.13281 1.8438-0.36719-1.1836 0.71484-2.4648 1.3633-3.1289 1.3633-1.4023 0.0625-2.793-0.23047-4.0508-0.85156-0.19141-0.10156-0.43359-0.03125-0.53906 0.16016-0.10547 0.19141-0.039063 0.43359 0.14844 0.54297 0.75391 0.41016 1.5703 0.6875 2.4141 0.8125 2.1445 1.0781 3.5547 2.6914 3.5547 4.2305 0 0.22266 0.17969 0.40234 0.39844 0.40234 0.22266 0 0.40234-0.17969 0.40234-0.40234 0-1.4531-0.94531-2.9336-2.5469-4.082h0.23438c1.75 0 5.7422-2.9375 5.7773-2.9688 0.32422-0.22266 0.71484-0.32422 1.1055-0.29297 0.17578 0.23047 0.5625 0.92969 0.054687 2.1953-0.32031 0.77734-0.83203 1.457-1.4922 1.9727-0.36719 0.27734-0.66797 0.63672-0.87109 1.0508-0.11328 0.32031-0.19141 0.65234-0.23438 0.98828-0.125 0.71484-0.22656 1.1875-0.53906 1.2305-0.49609 0.0625-0.94141 0.35156-1.2031 0.78125-1.1289 1.7812 0.10547 5.8398 0.12109 5.8789 0.46875 1.4688 0.38672 4.6992-2.5273 8.0234-1.2773 0.070312-2.1406 0.13672-2.1406 0.13672-0.22266 0.007812-0.39453 0.19531-0.38672 0.41797 0.007812 0.22266 0.19531 0.39844 0.41797 0.38672h0.03125l1.25-0.078125c-0.11328 0.12109-0.28125 0.25-0.42969 0.37891z" fill="#1c1c1a"/>
<path d="m32.762 13.652c0.12109-0.003906 0.23438-0.058594 0.30859-0.15234l1.7109-2.1094c0.09375-0.10938 0.12109-0.26562 0.070312-0.40234-0.046874-0.13672-0.16797-0.23828-0.3125-0.25781-0.14453-0.023438-0.29297 0.035156-0.37891 0.15234l-1.7109 2.1055c-0.097657 0.12109-0.11719 0.28906-0.050781 0.42578 0.066406 0.14063 0.20703 0.23047 0.36328 0.23047zm-1.9844-1.0859c0.046875 0.007813 0.097656 0.007813 0.14453 0 0.16797 0 0.31641-0.10547 0.375-0.26172l0.75781-1.9766c0.078124-0.21094-0.023438-0.44141-0.23047-0.52344-0.20703-0.078126-0.44141 0.023437-0.51953 0.23047l-0.75781 1.9805c-0.046875 0.10156-0.046875 0.22266-0.003906 0.32422 0.042969 0.10547 0.12891 0.1875 0.23438 0.22656zm-1.6445-0.16797c0.10938-0.007813 0.20703-0.058594 0.27734-0.14063 0.066406-0.082031 0.10156-0.1875 0.09375-0.29687l-0.13281-1.7148c-0.019532-0.22266-0.21484-0.39062-0.43359-0.37109-0.22266 0.019531-0.39062 0.21484-0.37109 0.4375l0.13281 1.7148c0.007812 0.10547 0.058593 0.20703 0.14062 0.27734 0.082031 0.066406 0.1875 0.10156 0.29297 0.09375z" fill="#1c1c1a"/>
<path d="m19.055 31.027c0 0.3125-0.25391 0.56641-0.5625 0.56641-0.3125 0-0.5625-0.25391-0.5625-0.56641 0-0.30859 0.25-0.5625 0.5625-0.5625 0.30859 0 0.5625 0.25391 0.5625 0.5625z" fill="#1c1c1a"/>
<path d="m19.242 32.949c0 0.3125-0.25391 0.56641-0.5625 0.56641-0.3125 0-0.5625-0.25391-0.5625-0.56641s0.25-0.56641 0.5625-0.56641c0.30859 0 0.5625 0.25391 0.5625 0.56641z" fill="#1c1c1a"/>
<path d="m20.707 34.215c0 0.30859-0.25 0.5625-0.5625 0.5625-0.30859 0-0.5625-0.25391-0.5625-0.5625 0-0.3125 0.25391-0.56641 0.5625-0.56641 0.3125 0 0.5625 0.25391 0.5625 0.56641z" fill="#1c1c1a"/>
<path d="m21.199 32.25c0 0.3125-0.25 0.56641-0.5625 0.56641-0.30859 0-0.5625-0.25391-0.5625-0.56641s0.25391-0.56641 0.5625-0.56641c0.3125 0 0.5625 0.25391 0.5625 0.56641z" fill="#1c1c1a"/>
<path d="m22.766 33.238c0 0.3125-0.25391 0.56641-0.5625 0.56641-0.3125 0-0.5625-0.25391-0.5625-0.56641s0.25-0.5625 0.5625-0.5625c0.30859 0 0.5625 0.25 0.5625 0.5625z" fill="#1c1c1a"/>
<path d="m31.77 31.027c0 0.3125-0.25391 0.56641-0.5625 0.56641-0.3125 0-0.5625-0.25391-0.5625-0.56641 0-0.30859 0.25-0.5625 0.5625-0.5625 0.30859 0 0.5625 0.25391 0.5625 0.5625z" fill="#1c1c1a"/>
<path d="m31.582 32.949c0 0.3125-0.25391 0.56641-0.5625 0.56641-0.3125 0-0.5625-0.25391-0.5625-0.56641s0.25-0.56641 0.5625-0.56641c0.30859 0 0.5625 0.25391 0.5625 0.56641z" fill="#1c1c1a"/>
<path d="m30.113 34.215c0 0.30859-0.25 0.5625-0.5625 0.5625-0.30859 0-0.5625-0.25391-0.5625-0.5625 0-0.3125 0.25391-0.56641 0.5625-0.56641 0.3125 0 0.5625 0.25391 0.5625 0.56641z" fill="#1c1c1a"/>
<path d="m29.621 32.25c0 0.3125-0.25 0.56641-0.5625 0.56641-0.30859 0-0.5625-0.25391-0.5625-0.56641s0.25391-0.56641 0.5625-0.56641c0.3125 0 0.5625 0.25391 0.5625 0.56641z" fill="#1c1c1a"/>
<path d="m28.059 33.238c0 0.3125-0.25391 0.56641-0.5625 0.56641-0.3125 0-0.5625-0.25391-0.5625-0.56641s0.25-0.5625 0.5625-0.5625c0.30859 0 0.5625 0.25 0.5625 0.5625z" fill="#1c1c1a"/>
<path d="m26.754 21.703c-0.10547-0.007813-0.21094 0.023437-0.29297 0.09375-0.082032 0.070313-0.13281 0.16797-0.14063 0.27734-0.15234 1.1055-0.66797 2.125-1.4727 2.8984-0.80078-0.77344-1.3164-1.7969-1.4609-2.9023-0.019531-0.22656-0.21094-0.39062-0.43359-0.375-0.22266 0.019532-0.38672 0.21484-0.37109 0.4375 0.19531 1.4336 0.90625 2.7461 2 3.6914 0.070313 0.058593 0.16016 0.089843 0.25 0.089843 0.09375 0 0.17969-0.03125 0.25391-0.089843 1.0898-0.94531 1.8008-2.2578 1.9961-3.6914 0.015625-0.20703-0.125-0.39062-0.32812-0.42969zm-7.0625 1.4531c-0.19141-0.10547-0.42578-0.039062-0.53516 0.14453-0.10938 0.1875-0.24609 0.38672-0.39453 0.59766-0.71484 1.043-1.7969 2.625-0.26953 4.3008 0.15234 0.12891 0.37891 0.125 0.52734-0.007813 0.14844-0.13672 0.17578-0.36328 0.058594-0.53125-1.0117-1.1016-0.49609-2.0508 0.34375-3.2773 0.15625-0.23437 0.30469-0.44922 0.42188-0.65234 0.0625-0.097657 0.082031-0.21094 0.050781-0.32422-0.03125-0.10938-0.10547-0.19922-0.20312-0.25zm10.883 0.14453c-0.10938-0.19531-0.35547-0.26172-0.54688-0.14844-0.19531 0.10938-0.26172 0.35938-0.14844 0.55078 0.11719 0.20312 0.26562 0.41797 0.42188 0.65234 0.83984 1.2266 1.3555 2.1758 0.34375 3.2812-0.12109 0.097656-0.17188 0.26172-0.12891 0.41406 0.039063 0.14844 0.16406 0.26562 0.32031 0.28906 0.15234 0.027344 0.30859-0.039063 0.39844-0.16797 1.5273-1.6602 0.44531-3.2266-0.27344-4.3008-0.13281-0.18359-0.27344-0.38281-0.38672-0.57031zm-10.07 5.125c0.070313-0.21094-0.046875-0.44141-0.25781-0.50781-0.21094-0.070313-0.44141 0.046875-0.50781 0.26172-0.30859 0.99609 0.11719 2.0781 1.0234 2.5898 0.19141 0.11328 0.4375 0.046875 0.55078-0.14844 0.10938-0.19141 0.042969-0.4375-0.14844-0.55078-0.57812-0.32422-0.85547-1.0078-0.66016-1.6445zm8.4258 2.3281c0.90625-0.51562 1.332-1.5938 1.0234-2.5898-0.066406-0.21484-0.29297-0.33203-0.50781-0.26172-0.21094 0.066406-0.32422 0.29688-0.25781 0.50781 0.1875 0.62891-0.085938 1.3086-0.66016 1.6289-0.19141 0.11328-0.25781 0.35938-0.14453 0.55078 0.10938 0.19531 0.35547 0.26172 0.54688 0.14844zm-2.5391-2.2461c-0.39062 0.44531-0.95312 0.70313-1.543 0.70313-0.59375 0-1.1562-0.25781-1.5469-0.70313-0.14844-0.17187-0.40625-0.19141-0.57812-0.042968-0.17188 0.14844-0.19141 0.40625-0.042968 0.57812 0.53906 0.63672 1.332 1 2.1641 1s1.6211-0.36328 2.1641-1c0.14844-0.17188 0.12891-0.42969-0.042968-0.57812-0.17188-0.14844-0.42969-0.12891-0.57812 0.042968zm-11.98-7.8711c-0.12891-0.082031-0.28906-0.089844-0.42188-0.011719-0.13281 0.074219-0.21094 0.21484-0.20312 0.36719 0.007813 0.15234 0.10156 0.28906 0.23828 0.35156 1.4102 0.77734 2.0195 1.9297 2.0195 2.3438 0 0.22266 0.17969 0.40234 0.40234 0.40234 0.22266 0 0.40234-0.17969 0.40234-0.40234 0-0.83203-0.91406-2.207-2.4375-3.0508zm21.469 0.16406c-0.10547-0.19141-0.34375-0.26172-0.53516-0.16406-1.5391 0.84375-2.4609 2.2188-2.4609 3.0547 0 0.22266 0.17969 0.40625 0.40234 0.40625s0.40234-0.18359 0.40234-0.40625c0-0.41406 0.60938-1.5703 2.0195-2.3438 0.09375-0.050781 0.16797-0.13672 0.19922-0.23828s0.023438-0.21484-0.027344-0.30859z" fill="#1c1c1a"/>
<path d="m61.137 30.652-0.48828-1.2344h-1.8711l-0.48828 1.2344h-0.3125l1.5625-3.9258h0.35156l1.5586 3.9258zm-2.25-1.5039h1.6562l-0.68359-1.7148-0.14453-0.41406h-0.003906l-0.14453 0.40234zm7.6602-0.41797h1.6055v1.9219h-0.23438l-0.015625-0.68359c-0.10547 0.23828-0.27344 0.42188-0.5 0.55078-0.22656 0.12891-0.50781 0.19141-0.84375 0.19141-0.35547 0-0.66797-0.082032-0.92969-0.24609-0.26953-0.16406-0.47656-0.39844-0.62109-0.70703-0.14062-0.30469-0.21484-0.66016-0.21484-1.0703 0-0.40625 0.074219-0.76172 0.22656-1.0703 0.14453-0.30469 0.35156-0.53906 0.62109-0.70313 0.26562-0.16406 0.57812-0.24609 0.93359-0.24609 0.40234 0 0.72656 0.078125 0.97656 0.23828 0.25391 0.15625 0.44531 0.39844 0.57422 0.72266l-0.27734 0.14062c-0.089844-0.26953-0.24219-0.47656-0.45703-0.61719-0.21484-0.14453-0.48438-0.21484-0.81641-0.21484-0.28906 0-0.54688 0.070312-0.76953 0.21484-0.21875 0.14062-0.39063 0.34375-0.51172 0.60547-0.125 0.26563-0.1875 0.57422-0.1875 0.92969 0 0.54688 0.13281 0.97266 0.39062 1.2852 0.25781 0.3125 0.61719 0.46484 1.0742 0.46484 0.28516 0 0.52734-0.054688 0.72266-0.16797 0.19922-0.11328 0.34375-0.26172 0.4375-0.44531 0.09375-0.18359 0.14453-0.38281 0.14453-0.59766v-0.21484h-1.3281zm5.9141 1.6484h2.4648v0.27344h-2.7617v-3.9258h2.668v0.26953h-2.3711v1.5195h1.875v0.27734h-1.875zm9.2891-3.6523v3.9258h-0.36719l-2.0742-3.082-0.28516-0.52344h-0.007813l0.019531 0.49609v3.1094h-0.28906v-3.9258h0.37891l2.0625 3.0742 0.29688 0.52734-0.011719-0.49219v-3.1094zm7.2891 2.9297c-0.11328 0.33594-0.30469 0.59375-0.57812 0.77734-0.27344 0.18359-0.60547 0.27734-0.98438 0.27734-0.35547 0-0.66797-0.082032-0.94141-0.24609-0.26562-0.16406-0.47266-0.39844-0.62109-0.70703-0.14453-0.30469-0.21484-0.66016-0.21484-1.0703 0-0.40625 0.070312-0.76172 0.21484-1.0703 0.14844-0.30469 0.35547-0.53906 0.62109-0.70313 0.27344-0.16406 0.58203-0.24609 0.93359-0.24609 0.78125 0 1.2852 0.32031 1.5195 0.96875l-0.29297 0.13281c-0.089843-0.27734-0.23437-0.48438-0.4375-0.62109-0.19922-0.14063-0.45703-0.21094-0.77344-0.21094-0.28906 0-0.54688 0.070312-0.76953 0.21484-0.22266 0.14062-0.39844 0.34375-0.51953 0.60547-0.12109 0.26563-0.18359 0.57422-0.18359 0.92969 0 0.35938 0.0625 0.66797 0.18359 0.92969 0.11719 0.26562 0.28516 0.46875 0.50781 0.60937 0.21875 0.14063 0.47656 0.21094 0.77344 0.21094 0.31641 0 0.58203-0.078125 0.80469-0.23047 0.21875-0.15625 0.37109-0.375 0.46094-0.66016zm4.1289 0.72266h2.4688v0.27344h-2.7656v-3.9258h2.668v0.26953h-2.3711v1.5195h1.8789v0.27734h-1.8789zm12.336-3.6523c0.625 0 1.1055 0.16406 1.4453 0.49609 0.33594 0.33203 0.50781 0.80859 0.50781 1.4375 0 0.64062-0.17188 1.1328-0.50781 1.4766-0.33984 0.34375-0.82031 0.51562-1.4453 0.51562h-1.2305v-3.9258zm0.027344 3.6523c0.51953 0 0.91797-0.14844 1.1953-0.44531 0.28125-0.29297 0.41797-0.71875 0.41797-1.2734 0-0.53516-0.13672-0.94141-0.41797-1.2305-0.27734-0.28906-0.67578-0.43359-1.1953-0.43359h-0.96094v3.3828zm6.1719 0h2.4648v0.27344h-2.7617v-3.9258h2.6719v0.26953h-2.375v1.5195h1.875v0.27734h-1.875zm13.039-2.4805-0.78516 2.7539h-0.36719l-1.2188-3.9258h0.32031l1.082 3.6836 1.0234-3.6836h0.34375l1.0234 3.6875 1.0977-3.6875h0.30469l-1.2227 3.9258h-0.36328l-0.79297-2.7539-0.21484-0.85156h-0.007812zm6.8711 2.4805h2.4727v0.27344h-2.7695v-3.9258h2.6758v0.26953h-2.3789v1.5195h1.8789v0.27734h-1.8789zm6.293 0.27344v-3.9258h1.3789c0.42969 0 0.75 0.089844 0.96094 0.26563 0.20703 0.17969 0.3125 0.4375 0.3125 0.77344 0 0.23047-0.0625 0.42578-0.1875 0.58203-0.12109 0.16016-0.30078 0.26172-0.52734 0.3125v0.003906c0.25391 0.039063 0.45312 0.14063 0.60156 0.30859 0.14844 0.16797 0.22266 0.375 0.22266 0.62109 0 0.33594-0.11719 0.59766-0.35938 0.78125-0.23828 0.18359-0.58203 0.27734-1.0234 0.27734zm0.29688-2.1172h1.0898c0.63672 0 0.95312-0.25391 0.95312-0.76953 0-0.51172-0.31641-0.76953-0.95312-0.76953h-1.0898zm0 1.8438h1.1406c0.33203 0 0.58594-0.066406 0.75391-0.20312 0.16797-0.13672 0.25391-0.33203 0.25391-0.58203 0-0.25781-0.085937-0.45312-0.25391-0.58594-0.16797-0.13281-0.42188-0.19922-0.75391-0.19922h-1.1406zm12.457-3.6523c0.625 0 1.1055 0.16406 1.4414 0.49609 0.33984 0.33203 0.50781 0.80859 0.50781 1.4375 0 0.64062-0.16797 1.1328-0.50781 1.4766-0.33594 0.34375-0.81641 0.51562-1.4414 0.51562h-1.2344v-3.9258zm0.023438 3.6523c0.52344 0 0.92188-0.14844 1.2031-0.44531 0.27344-0.29297 0.41406-0.71875 0.41406-1.2734 0-0.53516-0.14062-0.94141-0.41406-1.2305-0.28125-0.28906-0.67969-0.43359-1.2031-0.43359h-0.96094v3.3828zm6.1719 0h2.4727v0.27344h-2.7695v-3.9258h2.6719v0.26953h-2.375v1.5195h1.8789v0.27734h-1.8789zm7.5-3.7109c0.73438 0 1.2266 0.28906 1.4766 0.86328l-0.25391 0.21094c-0.10156-0.28125-0.25-0.48438-0.44531-0.61328-0.19531-0.125-0.45312-0.19141-0.76953-0.19141-0.23047 0-0.43359 0.039062-0.60156 0.10938-0.16797 0.074219-0.29688 0.16797-0.38672 0.28906-0.089844 0.125-0.13281 0.26562-0.13281 0.41797 0 0.14844 0.039062 0.27344 0.11328 0.375 0.074219 0.097656 0.19922 0.18359 0.38281 0.25391 0.17969 0.066407 0.42578 0.12891 0.74219 0.1875 0.50781 0.085938 0.87109 0.21484 1.082 0.38281 0.21484 0.16406 0.32031 0.39453 0.32031 0.6875 0 0.21094-0.0625 0.39453-0.18359 0.55859-0.12109 0.16406-0.29297 0.28906-0.51562 0.375-0.22656 0.089843-0.48438 0.13672-0.76953 0.13672-0.41016 0-0.75391-0.082032-1.0391-0.24609-0.28125-0.16406-0.47656-0.39453-0.57812-0.69141l0.26172-0.20703c0.078125 0.28516 0.23828 0.5 0.47656 0.64844 0.23828 0.14844 0.53516 0.22266 0.88672 0.22266 0.33984 0 0.61328-0.066406 0.82812-0.20703 0.21875-0.13672 0.32812-0.32812 0.32812-0.57422 0-0.20703-0.089844-0.375-0.26953-0.49609-0.17188-0.125-0.47656-0.22266-0.91406-0.29688-0.36328-0.066406-0.65625-0.14453-0.87109-0.23438-0.21094-0.089844-0.36328-0.20312-0.45703-0.33984-0.089844-0.13281-0.13672-0.30078-0.13672-0.50391s0.054687-0.38672 0.17187-0.55859c0.11719-0.17187 0.28125-0.30859 0.5-0.40625 0.21484-0.10156 0.46484-0.15234 0.75391-0.15234zm5.7148 0.058593v3.9258h-0.29687v-3.9258zm5.6992 2.0039h1.6016v1.9219h-0.23438l-0.007813-0.68359c-0.10938 0.23828-0.27734 0.42188-0.50391 0.55078-0.22656 0.12891-0.50781 0.19141-0.84375 0.19141-0.35547 0-0.66797-0.082032-0.93359-0.24609-0.26562-0.16406-0.46875-0.39844-0.61328-0.70703-0.14453-0.30469-0.21484-0.66016-0.21484-1.0703 0-0.40625 0.070313-0.76172 0.21875-1.0703 0.14844-0.30469 0.35938-0.53906 0.625-0.70313 0.26953-0.16406 0.58203-0.24609 0.9375-0.24609 0.39453 0 0.72266 0.078125 0.97656 0.23828 0.25391 0.15625 0.44141 0.39844 0.56641 0.72266l-0.26953 0.14062c-0.09375-0.26953-0.24609-0.47656-0.45703-0.61719-0.21875-0.14453-0.49219-0.21484-0.81641-0.21484-0.29688 0-0.55078 0.070312-0.77344 0.21484-0.21875 0.14062-0.39062 0.34375-0.51562 0.60547-0.12109 0.26563-0.17969 0.57422-0.17969 0.92969 0 0.54688 0.12891 0.97266 0.38672 1.2852s0.61719 0.46484 1.0742 0.46484c0.28516 0 0.52344-0.054688 0.72266-0.16797 0.19531-0.11328 0.34375-0.26172 0.4375-0.44531 0.097656-0.18359 0.14453-0.38281 0.14453-0.59766v-0.21484h-1.3281zm8.6172-2.0039v3.9258h-0.36719l-2.0742-3.082-0.28516-0.52344h-0.007812l0.015625 0.49609v3.1094h-0.28516v-3.9258h0.375l2.0664 3.0742 0.29688 0.52734-0.011719-0.49219v-3.1094z"/>
</g>
</svg>
